<?xml version="1.0" encoding="utf-8"?>
<!-- Generator: Adobe Illustrator 26.0.3, SVG Export Plug-In . SVG Version: 6.00 Build 0)  -->
<svg version="1.1" id="OBJECTS" xmlns="http://www.w3.org/2000/svg" xmlns:xlink="http://www.w3.org/1999/xlink" x="0px" y="0px"
	 viewBox="0 0 500 500" style="enable-background:new 0 0 500 500;" xml:space="preserve">
<style type="text/css">
	.st0{fill-rule:evenodd;clip-rule:evenodd;fill:#DFE5F3;}
	.st1{fill-rule:evenodd;clip-rule:evenodd;fill:#324360;}
	.st2{fill-rule:evenodd;clip-rule:evenodd;fill:#4D5F30;}
	.st3{fill-rule:evenodd;clip-rule:evenodd;fill:#748B4B;}
	.st4{fill:#98AA83;}
	.st5{fill-rule:evenodd;clip-rule:evenodd;fill:#98AA83;}
	.st6{fill-rule:evenodd;clip-rule:evenodd;fill:#647941;}
	.st7{fill-rule:evenodd;clip-rule:evenodd;fill:#FFFFFF;}
	.st8{fill-rule:evenodd;clip-rule:evenodd;fill:#F3D104;}
	.st9{fill-rule:evenodd;clip-rule:evenodd;fill:#4F2E42;}
	.st10{fill-rule:evenodd;clip-rule:evenodd;fill:#465B87;}
	.st11{fill-rule:evenodd;clip-rule:evenodd;fill:#CF801C;}
	.st12{fill-rule:evenodd;clip-rule:evenodd;fill:#D98C80;}
	.st13{fill-rule:evenodd;clip-rule:evenodd;fill:#D18074;}
	.st14{fill-rule:evenodd;clip-rule:evenodd;fill:#793323;}
	.st15{fill-rule:evenodd;clip-rule:evenodd;fill:#6E6E6D;}
	.st16{fill-rule:evenodd;clip-rule:evenodd;fill:#999A9A;}
	.st17{fill-rule:evenodd;clip-rule:evenodd;fill:#F1CC1F;}
	.st18{fill-rule:evenodd;clip-rule:evenodd;fill:#EBEBEB;}
	.st19{fill-rule:evenodd;clip-rule:evenodd;fill:#995014;}
	.st20{fill:#823F0D;}
</style>
<g>
	<path class="st0" d="M112.1,128.2c41.5,12.8,75.5,24.9,36.7,39.4c-31.9,12-116,35.2-116.4,73.9c-0.2,14,11.4,27.3,41,36.3
		c16.7,5.1,32.6,7.1,44.8,7.4c6.7,4.7,35.4,11.2,1.5,19.8c-73.5,18.6-95.1,80.8-4.5,89.8c-10.9,5.6-17,11.8-17,18.2
		c0,21.6,70,37.3,156.3,35.1c86.3-2.2,156.3-21.5,156.3-43.1c0-10.3-15.8-19.2-41.7-25.5c11.3-2.3,22.4-4.8,33.4-7.5
		c76.5-19,62.1-58.1,37.9-68.8c-36-15.8-105.1-0.6-58.3-20.1c36.8-15.3,54.7-35,45.4-52.2c13.2-10.2,43.9-33.5,22.7-49.3
		c-25.8-19.2-68-8.6-97.9-12.4c-15.2-1.9-14.5-9.3,6.4-22.2c48.3-29.9,68.8-76.3-1.3-96.1C291,32.3,205.3,40.2,145.7,64.6
		C93,86.2,71.1,115.6,112.1,128.2L112.1,128.2z M456.8,232.2c3.2,5.4-0.6,12.1-5.4,14.9c-12.6,7.5-19.2-15.1-11.6-19.6
		C444.6,224.7,453.6,226.8,456.8,232.2L456.8,232.2z M405.2,123.9c8.7,0,14,9.3,14,17c0,20.4-31.7,12.3-31.7,0
		C387.6,133.2,396.5,123.9,405.2,123.9L405.2,123.9z M84.3,124.4c5.9,0,9.5,6.2,9.5,11.5c0,13.7-21.3,8.3-21.3,0
		C72.4,130.7,78.4,124.4,84.3,124.4z"/>
	<path class="st1" d="M245.9,37.5c43.6,0,80.1,39,80.1,82c0,64.1-60.1,59.1-60.1,108.2c-1.7,12-8,18-18.8,18
		c-11.5-2.6-17.3-8-17.3-16.4v-5.2c0-65.8,59.7-58.8,59.7-106.5c0-24.6-21.7-43.6-45.6-43.6c-17.3,0-30.9,9.2-40.6,27.6l-4.7,23.1
		c-5.2,6.7-10.8,10.1-16.6,10.1c-12-2.6-17.9-8.5-17.9-17.8c0-25.5,12.5-47.7,37.5-66.6C216.7,41.8,231.5,37.5,245.9,37.5
		L245.9,37.5z M248.1,253.5c2.2,0,4.2,0.3,6.1,0.8c10,2.8,15.6,12.3,15.8,21.9c0.1,6.3-2.3,13.2-7.1,17.9
		c-12.9,12.4-39.2,4.3-39.2-16.9C223.7,262.7,233.9,253.5,248.1,253.5z"/>
	<g>
		<g>
			<path class="st2" d="M54.3,401.2c-1-1.6-2.3-3.6-3.9-4.1c-0.9-0.3-1.6-0.2-2.1,0.1c-0.3,0.2-0.6,0.4-0.7,0.8
				c-0.2,0.3-0.2,0.7-0.2,1c0,0.6,0.4,1.2,1,1.7c0.9,0.7,2.1,0.7,3.3,0.8c0.8,0,1.5,0.1,2.1,0.3c0,0.1,0.1,0.2,0.2,0.3
				c1,0.8,1.8,1.7,2.6,2.6c-0.4-0.2-0.8-0.3-1.1-0.3c-0.7,0-1.2,0.2-1.5,0.5c-0.2,0.2-0.3,0.4-0.4,0.7c-0.1,0.2-0.1,0.5,0,0.8
				c0.1,0.4,0.5,0.8,1,1.1c0.7,0.3,1.6,0.2,2.4,0c0.5-0.1,0.9-0.2,1.3-0.2c1.8,2.8,3.2,6,4.6,9.2c1.1,2.5,2.2,5.1,3.5,7.4
				c-4.2-4.2-7.8-7.6-11-10.4c0-0.4,0-0.8,0-1.3c0.1-0.9,0.2-1.7-0.2-2.4c-0.3-0.5-0.7-0.8-1.2-0.9c-0.3-0.1-0.5,0-0.8,0
				c-0.2,0.1-0.5,0.2-0.6,0.4c-0.3,0.3-0.4,0.8-0.3,1.5c-0.2-0.2-0.4-0.3-0.5-0.4c-1.3-1.1-2.6-2.1-3.8-3c-0.1-0.4-0.2-0.8-0.2-1.3
				c-0.1-0.9-0.2-1.7-0.7-2.3c-0.4-0.5-0.9-0.7-1.3-0.7c-0.3,0-0.5,0.1-0.7,0.2c-0.2,0.1-0.4,0.3-0.5,0.6c-0.2,0.3-0.2,0.7-0.1,1.1
				c-2-1.2-4-2.2-6.1-3.1c-0.1,0-0.2,0-0.3,0c-2.3-1.4-5.3-3.1-7.8-2.6c-1.2,0.2-2.1,0.8-2.5,1.5c-0.3,0.4-0.4,0.9-0.4,1.4
				c0,0.5,0.1,0.9,0.4,1.4c0.4,0.7,1.2,1.3,2.4,1.5c1.5,0.3,3.1-0.5,4.7-1.2c1-0.5,2.1-0.9,3-1.1c0,0.1,0.1,0.1,0.2,0.1
				c2.2,0.9,4.4,2,6.6,3.4c-0.8-0.2-1.5-0.2-2.2,0c-0.9,0.2-1.4,0.7-1.7,1.3c-0.2,0.3-0.2,0.7-0.2,1c0,0.3,0.2,0.7,0.4,1
				c0.4,0.5,1,0.8,1.8,0.9c1.1,0.1,2.2-0.5,3.2-1.1c0.6-0.4,1.2-0.7,1.8-0.9c1.2,0.9,2.4,1.8,3.6,2.8c2.9,2.4,6,5.2,9.7,8.8
				c-0.4-0.1-0.7-0.1-1.1-0.1c-0.7,0.1-1.1,0.3-1.4,0.7c-0.2,0.2-0.2,0.5-0.3,0.7c0,0.3,0,0.5,0.2,0.7c0.2,0.4,0.6,0.7,1.2,0.9
				c0.8,0.2,1.6-0.1,2.4-0.4c0.4-0.2,0.8-0.3,1.2-0.4c1.8,1.8,3.7,3.7,5.8,5.8c0.3,0.3,0.6,0.6,0.9,0.9l0,0c0,0,0,0,0,0
				c14.4,14.1,22.6,12.7,22.7,12.7c0.3,0,0.5-0.3,0.4-0.6c0-0.3-0.3-0.5-0.6-0.4c0,0-3.2,0.5-9.1-2.7c-0.1-0.4-0.1-0.9,0-1.3
				c0-0.9,0-1.7-0.4-2.4c-0.3-0.5-0.8-0.8-1.2-0.8c-0.3,0-0.5,0-0.8,0.1c-0.2,0.1-0.4,0.3-0.6,0.5c-0.3,0.4-0.4,0.9-0.2,1.5
				c0.1,0.2,0.1,0.5,0.3,0.7c-2.2-1.5-4.8-3.4-7.6-6c0.1-0.4,0.2-0.8,0.4-1.3c0.3-0.8,0.6-1.7,0.4-2.4c-0.2-0.6-0.5-1-0.9-1.2
				c-0.2-0.1-0.5-0.2-0.8-0.1c-0.3,0-0.5,0.1-0.7,0.3c-0.4,0.3-0.6,0.7-0.7,1.4c0,0.4,0.1,0.9,0.2,1.3c-2.8-3.1-4.7-7.4-6.7-11.9
				c-0.6-1.4-1.2-2.7-1.8-4.1c0.2-0.4,0.4-0.7,0.6-1.1c0.5-0.7,1-1.5,1-2.2c0-0.6-0.2-1.1-0.6-1.4c-0.2-0.2-0.4-0.3-0.7-0.3
				c-0.3,0-0.5,0-0.8,0.1l0,0c-0.4,0.2-0.8,0.6-1,1.2c-0.1,0.2-0.1,0.4-0.1,0.6c-1.6-2.9-3.4-5.5-5.9-7.5
				C54.6,401.2,54.5,401.2,54.3,401.2z"/>
		</g>
		<g>
			<path class="st2" d="M445.8,400.2c0.7-1.7,1.7-3.9,3.3-4.6c0.8-0.4,1.6-0.4,2.1-0.2c0.3,0.1,0.6,0.4,0.8,0.6
				c0.2,0.3,0.3,0.6,0.4,1c0.1,0.6-0.2,1.3-0.7,1.9c-0.8,0.8-2,1-3.2,1.3c-0.7,0.2-1.5,0.3-2,0.6c0,0.1-0.1,0.2-0.1,0.3
				c-0.8,0.9-1.6,1.9-2.2,3c0.3-0.2,0.7-0.4,1.1-0.5c0.6-0.1,1.2,0,1.5,0.3c0.2,0.2,0.4,0.4,0.5,0.6c0.1,0.2,0.1,0.5,0.1,0.8
				c-0.1,0.4-0.3,0.9-0.8,1.2c-0.7,0.4-1.5,0.4-2.4,0.4c-0.5,0-0.9,0-1.3,0c-1.4,3-2.3,6.4-3.2,9.8c-0.7,2.7-1.5,5.3-2.4,7.8
				c3.6-4.7,6.6-8.6,9.3-11.9c0-0.4-0.1-0.8-0.2-1.3c-0.2-0.8-0.4-1.7-0.1-2.4c0.2-0.6,0.6-0.9,1-1.1c0.2-0.1,0.5-0.1,0.8-0.1
				c0.2,0,0.5,0.2,0.7,0.3c0.3,0.3,0.6,0.8,0.6,1.4c0.2-0.2,0.3-0.4,0.5-0.5c1.1-1.3,2.3-2.4,3.4-3.5c0.1-0.4,0-0.9,0-1.3
				c0-0.9-0.1-1.7,0.4-2.4c0.3-0.5,0.8-0.8,1.2-0.8c0.3,0,0.5,0,0.8,0.1c0.2,0.1,0.4,0.3,0.6,0.5c0.2,0.3,0.3,0.6,0.3,1.1
				c1.8-1.5,3.6-2.8,5.6-3.9c0.1-0.1,0.2-0.1,0.3-0.1c2.1-1.7,4.8-3.8,7.4-3.7c1.3,0,2.2,0.5,2.7,1.2c0.3,0.4,0.5,0.8,0.6,1.3
				c0.1,0.5,0,0.9-0.2,1.4c-0.3,0.8-1,1.5-2.1,1.8c-1.5,0.5-3.2,0-4.9-0.5c-1.1-0.3-2.2-0.6-3.1-0.6c0,0.1-0.1,0.1-0.2,0.1
				c-2.1,1.2-4,2.6-6,4.3c0.7-0.3,1.5-0.4,2.2-0.4c0.9,0.1,1.5,0.5,1.9,1c0.2,0.3,0.3,0.6,0.3,1c0,0.3-0.1,0.7-0.2,1
				c-0.3,0.5-0.8,1-1.6,1.2c-1.1,0.2-2.2-0.2-3.4-0.6c-0.7-0.3-1.3-0.5-1.9-0.6c-1,1-2.1,2.1-3.2,3.3c-2.5,2.8-5.2,6.1-8.3,10.1
				c0.3-0.2,0.7-0.3,1-0.3c0.7,0,1.2,0.2,1.5,0.5c0.2,0.2,0.3,0.4,0.4,0.7c0.1,0.2,0,0.5,0,0.8c-0.1,0.4-0.5,0.8-1,1
				c-0.7,0.3-1.6,0.1-2.4,0c-0.4-0.1-0.9-0.2-1.3-0.2c-1.5,2-3.2,4.2-4.9,6.5c-0.2,0.3-0.5,0.7-0.7,1l0,0c0,0,0,0,0,0
				c-12.3,16-20.6,15.8-20.6,15.8c-0.3,0-0.5-0.2-0.5-0.5c0-0.3,0.2-0.5,0.5-0.5c0,0,3.2,0.1,8.6-3.9c0-0.4-0.1-0.9-0.1-1.3
				c-0.1-0.9-0.3-1.7,0-2.4c0.3-0.5,0.7-0.9,1.1-1c0.3-0.1,0.5-0.1,0.8,0c0.2,0.1,0.5,0.2,0.7,0.4c0.3,0.3,0.5,0.8,0.5,1.5
				c0,0.2-0.1,0.5-0.2,0.7c2-1.8,4.2-4.1,6.7-7c-0.1-0.4-0.3-0.8-0.5-1.2c-0.4-0.8-0.8-1.6-0.7-2.3c0.1-0.6,0.4-1,0.7-1.3
				c0.2-0.1,0.5-0.2,0.7-0.2c0.3,0,0.5,0,0.8,0.2c0.4,0.2,0.7,0.6,0.9,1.3c0.1,0.4,0.1,0.9,0,1.3c2.3-3.4,3.6-8,4.9-12.7
				c0.4-1.4,0.8-2.9,1.2-4.3c-0.2-0.3-0.5-0.7-0.8-1c-0.6-0.6-1.2-1.3-1.3-2.1c-0.1-0.6,0.1-1.1,0.4-1.4c0.2-0.2,0.4-0.3,0.6-0.4
				c0.2-0.1,0.5-0.1,0.8,0l0,0c0.4,0.1,0.9,0.4,1.2,1c0.1,0.2,0.2,0.4,0.2,0.6c1.1-3.1,2.6-6,4.7-8.2
				C445.6,400.3,445.7,400.2,445.8,400.2z"/>
		</g>
		<g>
			<path class="st2" d="M122.8,378.4c-0.8-1.7-1.8-3.8-1.4-5.5c0.2-0.9,0.7-1.4,1.2-1.7c0.3-0.2,0.7-0.2,1-0.2c0.3,0,0.7,0.1,1,0.4
				c0.5,0.4,0.9,1,1,1.8c0.1,1.1-0.5,2.2-1.1,3.3c-0.4,0.7-0.7,1.3-0.9,1.9c0.1,0.1,0.1,0.2,0.1,0.3c0.2,1.2,0.5,2.4,0.9,3.6
				c0-0.4,0.1-0.8,0.3-1.2c0.3-0.6,0.7-0.9,1.2-1c0.3-0.1,0.5-0.1,0.8,0c0.2,0.1,0.5,0.2,0.6,0.4c0.3,0.3,0.5,0.8,0.4,1.4
				c-0.1,0.8-0.7,1.4-1.3,2.1c-0.3,0.3-0.6,0.7-0.8,1c1.4,3,3.4,5.9,5.4,8.8c1.6,2.3,3.1,4.6,4.4,6.9c-1.3-5.8-2.4-10.6-3.1-14.8
				c-0.3-0.2-0.7-0.4-1.1-0.6c-0.8-0.4-1.6-0.8-1.9-1.5c-0.3-0.5-0.3-1-0.2-1.5c0.1-0.2,0.2-0.5,0.4-0.6c0.2-0.2,0.4-0.3,0.7-0.3
				c0.4-0.1,0.9,0.1,1.4,0.5c0-0.2-0.1-0.5-0.1-0.7c-0.2-1.7-0.4-3.3-0.5-4.8c-0.3-0.3-0.6-0.6-1-0.9c-0.7-0.5-1.4-1.1-1.6-1.8
				c-0.2-0.6-0.1-1.1,0.1-1.5c0.1-0.2,0.3-0.4,0.6-0.5c0.2-0.1,0.5-0.2,0.8-0.2c0.3,0,0.7,0.2,1,0.5c0-2.4,0.2-4.6,0.6-6.8
				c0-0.1,0.1-0.2,0.1-0.3c0.1-2.7,0.2-6.2,1.9-8.1c0.9-0.9,1.8-1.3,2.6-1.3c0.5,0,1,0.1,1.4,0.4c0.4,0.2,0.7,0.6,0.9,1
				c0.4,0.8,0.5,1.7,0,2.8c-0.6,1.4-2.1,2.4-3.5,3.4c-0.9,0.6-1.9,1.3-2.5,2c0,0.1,0,0.1,0,0.2c-0.4,2.4-0.6,4.8-0.6,7.4
				c0.3-0.7,0.6-1.4,1.1-1.9c0.7-0.6,1.4-0.8,2-0.8c0.4,0,0.7,0.2,1,0.4c0.3,0.2,0.5,0.5,0.6,0.8c0.2,0.6,0.2,1.3-0.2,2
				c-0.5,1-1.6,1.6-2.6,2.2c-0.6,0.3-1.2,0.7-1.7,1.1c0.1,1.4,0.3,3,0.5,4.6c0.5,3.7,1.3,7.9,2.4,12.9c0.1-0.4,0.3-0.7,0.5-1
				c0.4-0.5,0.9-0.8,1.3-0.8c0.3,0,0.5,0,0.8,0.2c0.2,0.1,0.4,0.3,0.6,0.5c0.2,0.4,0.3,0.9,0.1,1.5c-0.2,0.8-0.9,1.3-1.6,1.8
				c-0.4,0.3-0.7,0.6-1,0.8c0.6,2.5,1.2,5.1,1.8,8c0.1,0.4,0.2,0.8,0.3,1.2l0,0c0,0,0,0,0,0.1c4.4,19.7-1.1,25.9-1.1,26
				c-0.2,0.2-0.5,0.2-0.7,0.1c-0.2-0.2-0.2-0.5-0.1-0.7c0,0,2.1-2.4,2.5-9.1c-0.3-0.3-0.7-0.5-1.1-0.7c-0.7-0.4-1.5-0.9-1.8-1.6
				c-0.3-0.5-0.2-1.1-0.1-1.5c0.1-0.2,0.3-0.4,0.5-0.6c0.2-0.1,0.5-0.2,0.7-0.3c0.4,0,1,0.1,1.4,0.6c0.2,0.2,0.3,0.4,0.4,0.6
				c-0.1-2.7-0.4-5.9-1.1-9.6c-0.4-0.2-0.8-0.3-1.3-0.4c-0.8-0.2-1.7-0.4-2.2-1c-0.4-0.4-0.6-0.9-0.5-1.4c0-0.3,0.1-0.5,0.3-0.7
				c0.2-0.2,0.4-0.4,0.6-0.5c0.4-0.2,1-0.1,1.5,0.2c0.4,0.2,0.7,0.5,1,0.9c-1.1-4-3.8-7.9-6.6-11.9c-0.8-1.2-1.7-2.5-2.5-3.7
				c-0.4-0.1-0.8,0-1.3,0c-0.9,0-1.7,0.1-2.4-0.4c-0.5-0.3-0.8-0.8-0.8-1.2c0-0.3,0-0.5,0.1-0.8c0.1-0.2,0.3-0.4,0.5-0.6l0,0
				c0.4-0.3,0.9-0.4,1.5-0.2c0.2,0,0.4,0.1,0.6,0.2c-1.6-2.9-2.9-5.8-3.3-8.9C122.7,378.6,122.7,378.5,122.8,378.4z"/>
		</g>
		<g>
			<path class="st2" d="M123,401.8c-0.2,0-0.3,0.1-0.5,0.1c-5.9,1.1-10.2,5.3-7,10.7c3.2,5.4-10.1,4.8-11.1,10
				c-0.8,3.8,3.8,5.4,8.9,7.8c5.1,2.4-11.4,7.4-2,11.9c20.7,9.9,16.4,7.1,30.1-1.5c8.6-5.4-8.6-8.7-3.9-11.6
				c4.7-2.9,8.9-4.9,7.6-8.6c-1.9-5.1-15-3.1-12.7-8.8c2.3-5.7-2.8-9.4-8.8-10C123.4,401.9,123.2,401.8,123,401.8z"/>
			<path class="st2" d="M182.4,408.5c0.2,0.1,0.3,0.1,0.5,0.2c5.4,2.5,8.7,7.6,4.3,12.1c-4.4,4.5,8.7,7,8.5,12.3
				c-0.2,3.9-5,4.4-10.5,5.5c-5.5,1.2,9.4,9.8-0.8,12c-22.5,4.8-17.6,3.1-28.9-8.4c-7.1-7.2,10.4-6.4,6.5-10.3
				c-3.9-3.9-7.5-6.9-5.3-10.1c3-4.5,15.3,0.4,14.4-5.6c-0.9-6,4.9-8.5,10.8-7.6C182,408.4,182.2,408.4,182.4,408.5z"/>
		</g>
		<g>
			<path class="st3" d="M153,392.6c-0.2,0-0.3,0-0.5,0c-5.8,0.7-10.9,5.1-9,11.5c1.8,6.4-10.6,4.5-12.8,10.2
				c-1.6,4.2,2.5,6.5,6.8,9.7c4.3,3.2-12.5,7.3-4.5,13.2c17.6,13.1,14,9.5,29,1.1c9.4-5.3-6.3-10.6-1.2-13.4
				c5.1-2.8,9.6-4.7,9.1-9.1c-0.7-5.9-13.5-4.9-10.2-11.1c3.4-6.2-0.6-10.9-6.2-12.1C153.3,392.7,153.1,392.7,153,392.6z"/>
			<g>
				
					<rect x="123" y="424.7" transform="matrix(9.761222e-02 -0.9952 0.9952 9.761222e-02 -287.6492 533.2206)" class="st4" width="54.4" height="1"/>
			</g>
		</g>
		<g>
			<path class="st2" d="M325.2,397.3c0.2,0,0.3,0.1,0.5,0.1c5.9,1.1,10.2,5.3,7,10.7c-3.2,5.4,10.1,4.8,11.1,10
				c0.8,3.8-3.8,5.4-8.9,7.8c-5.1,2.4,11.4,7.4,2,11.9c-20.7,9.9-16.4,7.1-30.1-1.5c-8.6-5.4,8.6-8.7,3.9-11.6
				c-4.7-2.9-8.9-4.9-7.6-8.6c1.9-5.1,15-3.1,12.7-8.8c-2.3-5.7,2.8-9.4,8.8-10C324.9,397.3,325.1,397.3,325.2,397.3z"/>
			<path class="st2" d="M265.9,404c-0.2,0.1-0.3,0.1-0.5,0.2c-5.4,2.5-8.7,7.6-4.3,12.1c4.4,4.5-8.7,7-8.5,12.3
				c0.2,3.9,5,4.4,10.5,5.5c5.5,1.2-9.4,9.8,0.8,12c22.5,4.8,17.6,3.1,28.9-8.4c7.1-7.2-10.4-6.4-6.5-10.3c3.9-3.9,7.5-6.9,5.3-10.2
				c-3-4.5-15.3,0.4-14.4-5.6c0.9-6-4.9-8.5-10.8-7.6C266.2,403.9,266,403.9,265.9,404z"/>
		</g>
		<g>
			<path class="st3" d="M299,388.1c0.2,0,0.3,0,0.5,0c5.8,0.7,10.6,5.1,8.3,11.5c-2.2,6.4,10.4,4.5,12.1,10.2
				c1.3,4.2-2.8,6.5-7.4,9.7c-4.5,3.2,12,7.3,3.7,13.2c-18.4,13.1-14.6,9.5-29,1.1c-9-5.3,6.9-10.6,2-13.4c-4.9-2.8-9.3-4.7-8.5-9.1
				c1.1-5.9,13.8-4.9,10.8-11.1c-3-6.2,1.2-10.9,6.9-12.1C298.6,388.2,298.8,388.2,299,388.1z"/>
			
				<rect x="298.9" y="393.6" transform="matrix(0.9994 -3.594588e-02 3.594588e-02 0.9994 -14.9292 11.0456)" class="st5" width="1.6" height="54.1"/>
		</g>
		<g>
			<g>
				<path class="st2" d="M62,381.3c-0.1,0.1-0.2,0.2-0.3,0.3c-3.5,3.6-3.7,11,2.7,17.6c6.4,6.6-4,10.2-0.9,17.9
					c2.3,5.7,6.8,6.4,12.4,8.1c5.6,1.7-3,14.3,7.3,17.5c22.7,7,17.4,4.5,21.3-12.3c2.4-10.6-12.8-9.4-11.5-15.1
					c1.3-5.7,3-10-0.8-14.8c-5.1-6.5-13.4,0.6-15.9-8.2c-2.5-8.8-9-12.4-13.9-11.1C62.3,381.2,62.1,381.2,62,381.3z"/>
				
					<rect x="85.1" y="382.4" transform="matrix(0.8585 -0.5129 0.5129 0.8585 -203.5132 103.5433)" class="st5" width="1.6" height="76.2"/>
			</g>
			<g>
				<path class="st3" d="M102.2,357.6c-0.2,0.1-0.3,0.1-0.5,0.2C96.4,360,93,368,97,377.9c4,9.9-8.7,9.2-8.8,18.9
					c0,7.1,4.6,9.8,9.9,14.1c5.3,4.3-9.5,14.1,0.3,22c21.5,17.4,16.8,12.5,28.3-4c7.2-10.3-9.7-15.7-5.8-21.3
					c3.9-5.6,7.6-9.5,5.6-16.3c-2.7-9.3-14.8-5.2-13.6-15.8c1.1-10.6-4.3-17.3-10.1-18.1C102.6,357.6,102.4,357.6,102.2,357.6z"/>
				<polygon class="st5" points="104.8,366.3 118.5,454 116.9,454.2 103.3,366.5 				"/>
			</g>
		</g>
		<g>
			<g>
				<path class="st2" d="M443.6,381.3c0.1,0.1,0.2,0.2,0.3,0.3c3.5,3.6,3.7,11-2.7,17.6c-6.4,6.6,4,10.2,0.9,17.9
					c-2.3,5.7-6.8,6.4-12.4,8.1c-5.6,1.7,3,14.3-7.3,17.5c-22.7,7-17.4,4.5-21.3-12.3c-2.4-10.6,12.8-9.4,11.5-15.1
					c-1.3-5.7-3-10,0.8-14.8c5.1-6.5,13.4,0.6,15.9-8.2c2.5-8.8,9-12.4,13.9-11.1C443.3,381.2,443.5,381.2,443.6,381.3z"/>
				
					<rect x="381.6" y="419.7" transform="matrix(0.5129 -0.8585 0.8585 0.5129 -156.494 565.1852)" class="st5" width="76.2" height="1.6"/>
			</g>
			<g>
				<path class="st3" d="M403.4,357.6c0.2,0.1,0.3,0.1,0.5,0.2c5.4,2.3,8.7,10.3,4.7,20.2c-4,9.9,8.7,9.2,8.8,18.9
					c0,7.1-4.6,9.8-9.9,14.1c-5.3,4.3,9.5,14.1-0.3,22c-21.5,17.4-16.8,12.5-28.3-4c-7.2-10.3,9.7-15.7,5.8-21.3
					c-3.9-5.6-7.6-9.5-5.6-16.3c2.7-9.3,14.8-5.2,13.6-15.8c-1.1-10.6,4.3-17.3,10.1-18.1C403,357.6,403.2,357.6,403.4,357.6z"/>
				<polygon class="st5" points="402.3,366.5 388.7,454.2 387.1,454 400.8,366.3 				"/>
			</g>
		</g>
		<path class="st3" d="M246.9,462.5c111.2,0,201.9-7.6,201.9-17c0-9.4-90.7-17-201.9-17c-111.2,0-201.9,7.6-201.9,17
			C45,454.9,135.7,462.5,246.9,462.5z"/>
		<g>
			<path class="st5" d="M300.6,442.5c0.4,0,0.7-0.9,0.7-2c0-1.1-0.3-2-0.7-2c-0.4,0-0.7,0.9-0.7,2
				C299.9,441.6,300.2,442.5,300.6,442.5z"/>
			<path class="st5" d="M297.4,439c0.3-0.2,1.1,0.4,1.6,1.4c0.6,1,0.7,1.9,0.4,2.1c-0.4,0.2-1.1-0.4-1.6-1.4
				C297.2,440.1,297,439.2,297.4,439z"/>
			<path class="st5" d="M303.8,439c-0.3-0.2-1.1,0.4-1.6,1.4c-0.6,1-0.7,1.9-0.4,2.1c0.3,0.2,1.1-0.4,1.6-1.4
				C304,440.1,304.2,439.2,303.8,439z"/>
		</g>
		<g>
			<path class="st5" d="M104.2,449.4c0.4,0,0.7-0.9,0.7-2c0-1.1-0.3-2-0.7-2c-0.4,0-0.7,0.9-0.7,2
				C103.5,448.5,103.8,449.4,104.2,449.4z"/>
			<path class="st5" d="M101,445.9c0.3-0.2,1.1,0.4,1.6,1.4c0.6,1,0.7,1.9,0.4,2.1c-0.3,0.2-1.1-0.4-1.6-1.4
				C100.8,447.1,100.6,446.1,101,445.9z"/>
			<path class="st5" d="M107.4,445.9c-0.3-0.2-1.1,0.4-1.6,1.4c-0.5,1-0.7,1.9-0.4,2.1c0.3,0.2,1.1-0.4,1.6-1.4
				C107.6,447.1,107.8,446.1,107.4,445.9z"/>
		</g>
		<g>
			<path class="st5" d="M204.2,438.7c0.4,0,0.7-0.9,0.7-2c0-1.1-0.3-2-0.7-2c-0.4,0-0.7,0.9-0.7,2
				C203.4,437.8,203.8,438.7,204.2,438.7z"/>
			<path class="st5" d="M200.9,435.3c0.3-0.2,1.1,0.4,1.6,1.4c0.6,1,0.7,1.9,0.4,2.1c-0.3,0.2-1.1-0.4-1.6-1.4
				C200.7,436.4,200.5,435.5,200.9,435.3z"/>
			<path class="st5" d="M207.3,435.3c-0.3-0.2-1.1,0.4-1.6,1.4c-0.6,1-0.7,1.9-0.4,2.1c0.4,0.2,1.1-0.4,1.6-1.4
				C207.5,436.4,207.7,435.5,207.3,435.3z"/>
		</g>
		<path class="st6" d="M154.7,442.4c20.5,0,37.1-1.1,37.1-2.4c0-1.3-56.7-2.4-37.1-2.4c-20.5,0-37.1,1.1-37.1,2.4
			C117.5,441.3,134.2,442.4,154.7,442.4z"/>
		<path class="st6" d="M370.9,442.7c32.5,0,59-1.1,59-2.4c0-1.3-26.5-2.4-59-2.4c-32.5,0-59,1.1-59,2.4
			C311.8,441.6,338.3,442.7,370.9,442.7z"/>
	</g>
	<g>
		<path class="st1" d="M110.5,102.9c8.7,0,16,7.8,16,16.4c0,12.9-12,11.8-12,21.7c-0.3,2.4-1.6,3.6-3.8,3.6
			c-2.3-0.5-3.5-1.6-3.5-3.3v-1c0-13.2,12-11.8,12-21.4c0-4.9-4.3-8.7-9.1-8.7c-3.5,0-6.2,1.8-8.1,5.5l-0.9,4.6
			c-1.1,1.3-2.2,2-3.3,2c-2.4-0.5-3.6-1.7-3.6-3.6c0-5.1,2.5-9.6,7.5-13.4C104.6,103.8,107.6,102.9,110.5,102.9L110.5,102.9z
			 M110.3,146.2h0.7c2.1,0,3.5,1.3,4.3,3.8v1.2c-0.5,2.8-2.1,4.3-4.9,4.3c-2.9-0.6-4.4-2.1-4.4-4.5
			C106,148.3,107.4,146.7,110.3,146.2z"/>
		<path class="st1" d="M440.1,109c8.7,0,16,7.8,16,16.4c0,12.9-12,11.8-12,21.7c-0.3,2.4-1.6,3.6-3.8,3.6c-2.3-0.5-3.5-1.6-3.5-3.3
			v-1c0-13.2,12-11.8,12-21.4c0-4.9-4.3-8.7-9.1-8.7c-3.5,0-6.2,1.8-8.1,5.5l-0.9,4.6c-1.1,1.3-2.2,2-3.3,2
			c-2.4-0.5-3.6-1.7-3.6-3.6c0-5.1,2.5-9.6,7.5-13.4C434.3,109.9,437.3,109,440.1,109L440.1,109z M439.9,152.3h0.7
			c2.1,0,3.5,1.3,4.3,3.8v1.2c-0.5,2.8-2.1,4.3-4.9,4.3c-2.9-0.6-4.4-2.1-4.4-4.5C435.7,154.4,437.1,152.8,439.9,152.3z"/>
		<g>
			<path class="st7" d="M207.7,162.5c8.7,0,16,7.8,16,16.4c0,12.9-12,11.8-12,21.7c-0.3,2.4-1.6,3.6-3.8,3.6
				c-2.3-0.5-3.5-1.6-3.5-3.3v-1c0-13.2,12-11.8,12-21.4c0-4.9-4.3-8.7-9.1-8.7c-3.5,0-6.2,1.8-8.1,5.5l-0.9,4.6
				c-1.1,1.3-2.2,2-3.3,2c-2.4-0.5-3.6-1.7-3.6-3.6c0-5.1,2.5-9.6,7.5-13.4C201.9,163.4,204.9,162.5,207.7,162.5L207.7,162.5z
				 M207.5,205.8h0.7c2.1,0,3.5,1.3,4.3,3.8v1.2c-0.5,2.8-2.1,4.3-4.9,4.3c-2.9-0.6-4.4-2.1-4.4-4.5
				C203.3,207.9,204.7,206.4,207.5,205.8z"/>
			<path class="st7" d="M87.9,233.3c5.6,0,10.4,5.1,10.4,10.6c0,8.3-7.8,7.7-7.8,14c-0.2,1.6-1,2.3-2.4,2.3c-1.5-0.3-2.2-1-2.2-2.1
				v-0.7c0-8.5,7.7-7.6,7.7-13.8c0-3.2-2.8-5.6-5.9-5.6c-2.2,0-4,1.2-5.3,3.6l-0.6,3c-0.7,0.9-1.4,1.3-2.2,1.3
				c-1.6-0.3-2.3-1.1-2.3-2.3c0-3.3,1.6-6.2,4.9-8.6C84.1,233.9,86,233.3,87.9,233.3L87.9,233.3z M87.7,261.3h0.4
				c1.3,0,2.3,0.8,2.8,2.4v0.8c-0.3,1.8-1.4,2.8-3.1,2.8c-1.9-0.4-2.8-1.4-2.8-2.9C85,262.7,85.9,261.7,87.7,261.3z"/>
			<path class="st7" d="M305.3,306.2c6.5,0,12,5.8,12,12.3c0,9.6-9,8.8-9,16.2c-0.3,1.8-1.2,2.7-2.8,2.7c-1.7-0.4-2.6-1.2-2.6-2.5
				v-0.8c0-9.8,8.9-8.8,8.9-15.9c0-3.7-3.2-6.5-6.8-6.5c-2.6,0-4.6,1.4-6.1,4.1l-0.7,3.4c-0.8,1-1.6,1.5-2.5,1.5
				c-1.8-0.4-2.7-1.3-2.7-2.7c0-3.8,1.9-7.1,5.6-10C300.9,306.9,303.1,306.2,305.3,306.2L305.3,306.2z M305.1,338.5h0.5
				c1.5,0,2.6,0.9,3.2,2.8v0.9c-0.4,2.1-1.6,3.2-3.6,3.2c-2.2-0.5-3.3-1.6-3.3-3.3C302,340.1,303,338.9,305.1,338.5z"/>
			<path class="st7" d="M205.5,317.2c6.5,0,12,5.8,12,12.3c0,9.6-9,8.8-9,16.2c-0.3,1.8-1.2,2.7-2.8,2.7c-1.7-0.4-2.6-1.2-2.6-2.5
				v-0.8c0-9.8,8.9-8.8,8.9-15.9c0-3.7-3.2-6.5-6.8-6.5c-2.6,0-4.6,1.4-6.1,4.1l-0.7,3.4c-0.8,1-1.6,1.5-2.5,1.5
				c-1.8-0.4-2.7-1.3-2.7-2.7c0-3.8,1.9-7.1,5.6-10C201.1,317.8,203.3,317.2,205.5,317.2L205.5,317.2z M205.3,349.5h0.5
				c1.5,0,2.6,0.9,3.2,2.8v0.9c-0.4,2.1-1.6,3.2-3.6,3.2c-2.2-0.5-3.3-1.6-3.3-3.3C202.1,351.1,203.2,349.9,205.3,349.5z"/>
		</g>
	</g>
	<g>
		<g>
			<path class="st8" d="M359.9,198.8l-7.1,18.8l32.5-18.7h9.1c11.7,0,21.3-9.6,21.3-21.3l0,0c0-11.7-9.6-21.3-21.3-21.3h-33.8
				c-11.7,0-21.3,9.6-21.3,21.3l0,0C339.2,189,348.4,198.4,359.9,198.8z"/>
			<g>
				<path class="st9" d="M363,181.4c1.6,0,2.9-1.3,2.9-2.9c0-1.6-1.3-2.9-2.9-2.9c-1.6,0-2.9,1.3-2.9,2.9
					C360.1,180.1,361.4,181.4,363,181.4z"/>
				
					<ellipse transform="matrix(1 -5.813937e-03 5.813937e-03 1 -1.0312 2.1694)" class="st9" cx="372.6" cy="178.5" rx="2.9" ry="2.9"/>
				<path class="st9" d="M382.2,181.4c1.6,0,2.9-1.3,2.9-2.9c0-1.6-1.3-2.9-2.9-2.9c-1.6,0-2.9,1.3-2.9,2.9
					C379.3,180.1,380.6,181.4,382.2,181.4z"/>
				<path class="st9" d="M391.8,181.4c1.6,0,2.9-1.3,2.9-2.9c0-1.6-1.3-2.9-2.9-2.9c-1.6,0-2.9,1.3-2.9,2.9
					C388.9,180.1,390.2,181.4,391.8,181.4z"/>
			</g>
		</g>
		<g>
			<path class="st10" d="M132.2,215.3l7.1,18.8l-32.5-18.7h-9.1c-11.7,0-21.3-9.6-21.3-21.3l0,0c0-11.7,9.6-21.3,21.3-21.3h33.8
				c11.7,0,21.3,9.6,21.3,21.3l0,0C152.8,205.5,143.6,215,132.2,215.3z"/>
			<g>
				<path class="st7" d="M100.2,200.1c1.6,0,2.9-1.3,2.9-2.9c0-1.6-1.3-2.9-2.9-2.9c-1.6,0-2.9,1.3-2.9,2.9
					C97.3,198.8,98.6,200.1,100.2,200.1z"/>
				<path class="st7" d="M109.8,200.1c1.6,0,2.9-1.3,2.9-2.9c0-1.6-1.3-2.9-2.9-2.9c-1.6,0-2.9,1.3-2.9,2.9
					C106.9,198.8,108.2,200.1,109.8,200.1z"/>
				<path class="st7" d="M119.4,200.1c1.6,0,2.9-1.3,2.9-2.9c0-1.6-1.3-2.9-2.9-2.9c-1.6,0-2.9,1.3-2.9,2.9
					C116.5,198.8,117.8,200.1,119.4,200.1z"/>
				<path class="st7" d="M129,200.1c1.6,0,2.9-1.3,2.9-2.9c0-1.6-1.3-2.9-2.9-2.9c-1.6,0-2.9,1.3-2.9,2.9
					C126.1,198.8,127.4,200.1,129,200.1z"/>
			</g>
		</g>
		<g>
			<path class="st11" d="M370.8,59.1h30.5c7.2,0,13.2,5.9,13.2,13.2v30.5c0,7.2-5.9,13.2-13.2,13.2H391l-24.6,12.8l6.8-12.8h-2.4
				c-7.2,0-13.2-5.9-13.2-13.2V72.3C357.7,65.1,363.6,59.1,370.8,59.1z"/>
			<path class="st7" d="M386.2,68.4c7,0,12.8,6.2,12.8,13.1c0,10.3-9.6,9.4-9.6,17.3c-0.3,1.9-1.3,2.9-3,2.9
				c-1.8-0.4-2.8-1.3-2.8-2.6v-0.8c0-10.5,9.5-9.4,9.5-17c0-3.9-3.5-7-7.3-7c-2.8,0-4.9,1.5-6.5,4.4l-0.8,3.7
				c-0.8,1.1-1.7,1.6-2.7,1.6c-1.9-0.4-2.9-1.4-2.9-2.8c0-4.1,2-7.6,6-10.6C381.6,69.1,383.9,68.4,386.2,68.4L386.2,68.4z
				 M386.1,103h0.5c1.6,0,2.8,1,3.5,3v1c-0.4,2.3-1.7,3.4-3.9,3.4c-2.3-0.5-3.5-1.7-3.5-3.6C382.7,104.7,383.8,103.4,386.1,103z"/>
		</g>
		<g>
			<g>
				<path class="st11" d="M76,345.4c14.7,0,26.6-11.9,26.6-26.6c0-14.7-11.9-26.6-26.6-26.6c-14.7,0-26.6,12-26.6,26.6
					C49.4,333.4,61.3,345.4,76,345.4z"/>
				<path class="st7" d="M76.1,301.1c5.9,0,10.8,5.2,10.8,11c0,8.6-8.1,7.9-8.1,14.5c-0.2,1.6-1.1,2.4-2.5,2.4
					c-1.5-0.3-2.3-1.1-2.3-2.2v-0.7c0-8.8,8-7.9,8-14.3c0-3.3-2.9-5.9-6.1-5.9c-2.3,0-4.1,1.2-5.5,3.7l-0.6,3.1
					c-0.7,0.9-1.5,1.4-2.2,1.4c-1.6-0.3-2.4-1.1-2.4-2.4c0-3.4,1.7-6.4,5-9C72.2,301.7,74.2,301.1,76.1,301.1L76.1,301.1z M76,330.2
					h0.4c1.4,0,2.3,0.8,2.9,2.5v0.8c-0.4,1.9-1.4,2.9-3.3,2.9c-2-0.4-2.9-1.4-2.9-3C73.1,331.6,74.1,330.6,76,330.2z"/>
			</g>
			<polygon class="st11" points="92.6,320.8 111,320.8 91.8,340.2 92.6,333 			"/>
		</g>
	</g>
	<g>
		<g>
			<path class="st9" d="M164.7,231.1c0.9,3.4-2.7,10-2.7,9.6c0-0.4-2.8-10-2.8-10L164.7,231.1z"/>
			<path class="st12" d="M201.4,269l2.9-2.2c0,0,0.9-3.9,1.3-4.6c0.3-0.7,1.9-3.1,1.9-3.1s1.9-1.8,1.7-0.4c-0.2,1.4-0.2,4.2-0.2,4.2
				c9.4-5.8,15.9-2.6,0.3,8.8c-0.4,0.6-1,1.2-1.7,1.9c-6.2,5.6-21.1,20.4-24.2,19.9c-3.8-0.5-31.2-14.7-37.7-30.5
				c0.5-2.1,9-0.9,16.3,2.6c7.3,3.5,20.9,13.3,20.9,13.3S194.3,272.5,201.4,269z"/>
			<path class="st3" d="M169.9,290.1c-2-1.6-4.2-3.4-6.3-5.3c-0.1-0.1-0.3-0.2-0.4-0.4c-3.1-2.8-5.9-5.6-7.3-7.9
				c-2.6-4-1.8-8.8-0.3-12.2c1-2.3,2.4-4,3.2-4.4c1.1,0.3,2.3,0.7,3.4,1.2c7.3,3.2,14.5,9.8,20.2,16.3c-0.6,0.5-1.2,1.1-1.8,1.6
				c-3,2.7-5.5,5.1-7.4,7.2C171.8,287.8,170.8,289,169.9,290.1z"/>
			<path class="st13" d="M160.4,414.9c0.1,12-0.1,18.6-0.1,18.6s-0.9,2.8,4.7,4.6c5.6,1.7,2.8-4.7,2.8-4.7
				C168,429.6,167.4,410.6,160.4,414.9z"/>
			<path class="st13" d="M131.4,414.9c0.1,12-0.1,18.6-0.1,18.6s-0.9,2.8,4.7,4.6c5.6,1.7,2.8-4.7,2.8-4.7
				C139.1,429.6,138.5,410.6,131.4,414.9z"/>
			<path class="st9" d="M135.7,329.6l-1.9,52l-5.1,48l12.2,0.4l14-79.6l5.9,35.3l-2.3,44.3l10.7-0.2l6.5-45.7l-0.9-56.1
				C174.9,327.9,146.5,324.4,135.7,329.6z"/>
			<path class="st3" d="M134.6,298.5c0.3,9.3-2.1,36.3-1.9,36.5c9.4,7.4,32.8,7.7,42.9-0.5c0.1,0-3.1-63-13.7-72.7
				c-3.1-2.8-8.1-4.1-11-4.3c-2.1-0.1-12.6,1.8-15,2.9c-8.5,3.9-9.5,13.5-9.2,13.7l7.7,10.7l0.3,0.6
				C134.5,289.2,134.4,293.6,134.6,298.5z"/>
			<path class="st13" d="M146.3,244.9c0.8,13.4,0.8,13.4,0.8,13.4s-0.6,6.3,5,8.2c5.6,1.9,3.4-6.8,3.4-6.8l-0.2-6.3
				C155.3,253.4,151.5,241.4,146.3,244.9z"/>
			<path class="st12" d="M146.4,241.2c-1.8-1.9-3.7,1.7-1.7,3.1c0.8,0.6,1.9,0.6,1.9,0.6s0.3,4.3,5.5,7.2c5.2,2.9,10.1,0.9,10.3-6.9
				c0.2-7.8,0.8-12.7,0.8-12.7l-13.1-0.8C150,231.7,149.4,237.8,146.4,241.2z"/>
			<path class="st12" d="M127.8,283.6c-5.7,4.5-12.6,12.2-12.6,12.2l17.3,22.5c0,0,3.9,0.9,4.6,1.3c0.7,0.3,3.1,1.9,3.1,1.9
				s1.8,1.9,0.4,1.7c-1.4-0.2-4.2-0.2-4.2-0.2c5.9,9.6,2.4,16.1-9.5-0.7c0,0-16.1-18.9-17.2-23.4c-1.1-4.5,8-18.8,8-18.8
				L127.8,283.6z"/>
			<path class="st9" d="M144.2,241c0,0,0.9-0.7,1.7,0.4c0.8,1,0.8,1.1,0.8,1.1s3.3-4.3,3.6-7.5c0.2-3.2,0.2-3.3,0.2-3.3
				s14.1,4.2,16.9-1.7c3.9-8.3-19.3-14.9-23.2-3.7c-1-0.7-5.5-0.8-1.6,1.3c-0.3,0-1.8,0.6-1.8,1.1C140.2,231.4,143.7,240,144.2,241z
				"/>
			<path class="st12" d="M134.1,262.5c2.1,0.5,10.5,5.8,7,13.1c-3.5,7.3-22.9,19.3-22.9,19.3s12.9,22.2,12.6,23.9
				c-0.7,3.7-1.5,6.8-5.2,2.7c-5.6-6.2-20.4-21.1-19.9-24.2C106.2,293.5,118.3,269,134.1,262.5z"/>
			<path class="st9" d="M159.7,432.6c0,7.2,0,7.2,0,7.2h20.8l-13.3-7.2H159.7z"/>
			<path class="st9" d="M131.2,432.6c0,7.2,0,7.2,0,7.2H152l-13.3-7.2H131.2z"/>
			<path class="st3" d="M128.8,290.8c1.8-1.8,3.7-3.9,5.6-6c0.1-0.1,0.2-0.3,0.4-0.4c2.7-3.1,5.2-6.3,6.3-8.7
				c2.3-4.8,0-19.2-8.1-14.4c-6.8,4-13.2,11.5-18,18.7c0.7,0.5,1.3,0.9,1.9,1.3c3.3,2.3,6.1,4.4,8.2,6.2
				C126.6,288.7,127.8,289.8,128.8,290.8z"/>
			<path class="st9" d="M147.3,239c0.8,5.5,3.1,10.1,6.1,11.6c4,2,8.5-0.2,8.9-5.6c0.3-4.3,1.2,1.5-0.4,5.6
				c-0.8,2.1-2.1,3.3-4.8,3.5c-4,0.2-6.2-0.6-8-2.8c-1.9-2.2-2.8-5.8-3.1-11.2C145.3,229.4,147.3,239,147.3,239z"/>
			<path class="st9" d="M153.1,251.4c-1.6-6.8,2.1-8.2,4.6-8.1c3.7,0.2,4.6,3.5,2.9,8c-0.4,1.1-1,1-0.9-0.8c0.1-2-0.6-3.6-1.6-3.8
				c-1.4-0.3-3.1,0.4-3.2,2.2C154.5,251.6,153.8,252.6,153.1,251.4z"/>
		</g>
		<g>
			<g>
				<path class="st13" d="M339.3,414.9c-0.1,12,0.1,18.6,0.1,18.6s0.9,2.8-4.7,4.6c-5.6,1.7-2.8-4.7-2.8-4.7
					C331.7,429.6,332.3,410.6,339.3,414.9z"/>
				<path class="st13" d="M365.8,414.9c2.1,12,3.6,18.6,3.6,18.6s1.4,2.8-3.9,4.6c-5.3,1.7-3.7-4.7-3.7-4.7
					C360.9,429.6,358,410.6,365.8,414.9z"/>
				<path class="st9" d="M339.4,432.6c0,7.2,0,7.2,0,7.2h-20.8l13.3-7.2H339.4z"/>
				<path class="st9" d="M369.3,432.6c1.4,7.2,1.4,7.2,1.4,7.2h-20.8l11.9-7.2H369.3z"/>
				<path class="st14" d="M336.9,232.2c-4.8,4.5-8,9.6-4.1,19.4c3.9,9.8-13.7,8.5-12,22.1c2.6,20.3,50.5,3.5,55.5-1.1
					c8.2-7.4-5.4-16.3-10.6-19.3c-5.2-2.9-1.9-13.7-4.4-19.4c-2.5-5.7-6.4-5.4-8-5.2C351.8,229.1,336.9,232.2,336.9,232.2z"/>
				<path class="st12" d="M297.9,269l-2.9-2.2c0,0-0.9-3.9-1.3-4.6c-0.3-0.7-1.9-3.1-1.9-3.1s-1.9-1.8-1.7-0.4
					c0.2,1.4,0.2,4.2,0.2,4.2c-9.4-5.8-15.9-2.6-0.3,8.8c0.4,0.6,1,1.2,1.7,1.9c6.2,5.6,21.1,20.4,24.2,19.9
					c3.8-0.5,31.2-14.7,37.7-30.5c-0.5-2.1-9-0.9-16.3,2.6c-7.3,3.5-20.9,13.3-20.9,13.3S305,272.5,297.9,269z"/>
				<path class="st9" d="M326.5,291.3c4.9-3.9,20.2-20.2,17.3-26.9c-1-2.3-0.7-4.4-1.5-4.7c-6.2,0.9-15,9.2-25.4,17.9
					C322.3,282.1,323,284.4,326.5,291.3z"/>
				<path class="st15" d="M363.9,324.5l1.9,56.9l3.8,47.9l-10.1,0.4l-8-36.1l-9.1-45.5l-3.5,37.4l1.5,44.2l-9.7-0.2l-6.8-45.6
					l1.2-60.6C325,323.4,353.2,319.4,363.9,324.5z"/>
				<path class="st9" d="M364.8,324.7c-9.4,7.4-30.7,8-40.7-0.3c0,0,2.5-10.2,5.5-18.1c6.3-16.6,1.6-38.5,8.1-44.6
					c3.1-2.8,8.1-4.1,11-4.3c4.7-0.2,10.1,3,12,10.6c1.2,4.8,7.7,5.5,4.6,12.8c-1.3,3-6.3,18.1-4.3,27.6
					C362.6,315.8,364.9,324.6,364.8,324.7z"/>
				<path class="st13" d="M353.3,244.9c-0.8,13.4-0.8,13.4-0.8,13.4c0.3-0.2-4.5,4.2-7.2,4.9c-2.2,0.6-2.5-2.4-1.2-3.6l0.2-6.3
					C344.3,253.4,348.2,241.4,353.3,244.9z"/>
				<path class="st12" d="M353.3,241.2c1.8-1.9,3.7,1.7,1.7,3.1c-0.8,0.6-1.9,0.6-1.9,0.6s-0.3,4.3-5.5,7.2
					c-5.2,2.9-10.1,0.9-10.3-6.9c-0.2-7.8-0.8-12.7-0.8-12.7l13.1-0.8C349.6,231.7,350.3,237.8,353.3,241.2z"/>
				<path class="st9" d="M354.2,258.8c16.4-2.3,16.9,21.4,16.6,21.6l-5.6,4.3l-6,12.5L354.2,258.8z"/>
				<path class="st7" d="M343.7,271.7c0.7,0,1.3-0.6,1.3-1.3c0-0.7-0.6-1.3-1.3-1.3c-0.7,0-1.3,0.6-1.3,1.3
					C342.4,271.2,343,271.7,343.7,271.7z"/>
				<path class="st7" d="M342.5,275.5c0.7,0,1.3-0.6,1.3-1.3c0-0.7-0.6-1.3-1.3-1.3c-0.7,0-1.3,0.6-1.3,1.3
					C341.2,274.9,341.8,275.5,342.5,275.5z"/>
				<path class="st7" d="M342.3,284.5c1.1,0,2-0.9,2-2c0-1.1-0.9-2-2-2s-2,0.9-2,2C340.3,283.6,341.2,284.5,342.3,284.5z"/>
				<path class="st14" d="M332.8,236.8c5.4,3.1,7.8,1.7,11.1,0.1c3.3-1.7,5-4.7,5-4.7s-1.2,2.9,0.3,6.5c1.5,3.6,3,4.6,3,4.6
					s1.2-3,2.3-2.7c1.1,0.3,1.3,2,1.3,2s3.1-12.6,1.1-13.6c-2.1-1-2.6-0.6-2.6-0.6s-3.1-5.3-8.7-5
					C340,223.9,333.6,224.9,332.8,236.8z"/>
				<polygon class="st16" points="321.6,281.3 347.1,279 353.8,318.3 328.3,320.6 				"/>
				<path class="st12" d="M367.2,268.1c-1.8-1.2-6.3-0.1-9.4,7.4c-3.1,7.5-2.8,22.9-2.8,22.9s-17.1,4-24.5,4.6
					c-3.8,0.3-4.9,7.2,0.6,7.2c8.4,0,29.3,0.5,31.3-1.9C364.9,305.3,372.9,284.2,367.2,268.1z"/>
				<path class="st12" d="M335.6,309.8c-10,1.4-12.5-0.7-13.6-3.8c-1.1-3-0.2-4.8,2.2-7.6c0.4-0.4,0.4,2.5,1,2.8
					c0.1,0.1,2.3,0.2,2.3-0.1c0.1-0.7-2.4-3-1-2.9c1.1,0.1,5.7,3.1,5.9,3.2C333.8,302.6,336.1,307.7,335.6,309.8z"/>
				<path class="st9" d="M351.8,296.1c5.1,1.4,10.5,3.2,14,6.8c5.8-14.1,7.1-23.3,3.5-33.6c-1-3-2.5-5.8-6.6-8.9
					c-3.8-2.6-5.5,4.2-7.5,8.9c-1.3,3.2-1.9,7.6-2.3,11.1C352.2,286.7,351.9,293.4,351.8,296.1z"/>
			</g>
			<g>
				<path class="st12" d="M372.8,313c1.4,3.3,3.1,6.6,4.2,8.6c0.1,0.2-0.9-0.6-1.5-0.7c-2.1-0.2,3.6,5.7,4.2,3.1
					c0.2-1,2.3-11,2.1-11.8c-0.2-0.9-4.5-3.9-4.5-3.9L372.8,313z"/>
				<path class="st14" d="M412.1,223.7c3.6,2.8,2.7,5.9,0.3,12.1c-2.4,6.2-4.7,10.2-4.7,10.2s-1.9-16.9-1.3-17.8
					C407,227.3,409.4,222.8,412.1,223.7z"/>
				<path class="st17" d="M397.4,253.1c-12,9.9-20.1,27-20.1,27l9.7,10.6C387,290.8,397.6,264,397.4,253.1z"/>
				<path class="st12" d="M416,424.5c0.8,10.3,0.8,10.3,0.8,10.3h5.5l0.9-10.7L416,424.5z"/>
				<path class="st12" d="M394.1,424.5c0.3,10.3,0.3,10.3,0.3,10.3h-5.5l-2-10.7L394.1,424.5z"/>
				<path class="st1" d="M394.9,433.3c0,6.5,0,6.5,0,6.5h-18.6l11.9-6.5H394.9z"/>
				<path class="st1" d="M422.9,433.3c0,6.5,0,6.5,0,6.5h-18.6l11.9-6.5H422.9z"/>
				<path class="st1" d="M419,320.5l-0.2,11.9l0.5,46.8l6,49.4l-12.2-0.7l-14.6-78.5l-3.8,34.7l2.2,43.9l-10.3,0.9l-6.2-46.4l0.9-57
					c0,0,7.6-12.2,15.8-12.4C405.1,312.9,413.9,318,419,320.5z"/>
				<path class="st18" d="M415.6,287.9c-0.3,9.8,1.3,33.1,1.1,33.3c-5.9,4.6-12.9-4.9-20.7-5.8c-5.4-0.6-11.5,8.8-15.9,5.2
					c-0.2-0.2,3.8-27,3.8-32.2c0-27.2,12.2-36.8,20.3-37.2C414.6,250.6,416.8,253.6,415.6,287.9z"/>
				<path class="st13" d="M409.2,237.9c-0.8,14.2-0.8,14.2-0.8,14.2c0.7,8-10,13.2-9.4,4.4c0.2-3.2,0.6-6.2,0.7-9.6
					C399.8,246.9,403.8,234.2,409.2,237.9z"/>
				<path class="st12" d="M409.2,234c1.9-2,3.9,1.8,1.8,3.3c-0.8,0.6-2,0.6-2,0.6s-0.4,4.6-5.8,7.6c-5.4,3.1-10.6,0.9-10.9-7.3
					c-0.2-8.3-0.8-13.4-0.8-13.4l13.8-0.8C405.3,223.9,406,230.3,409.2,234z"/>
				<path class="st14" d="M409,237.1c-1.1-1.8-3.1-6.5-3.7-9.1c-0.2-1-1.8-0.6-2.9-1c-1.3-0.5-2.3-1.8-2.6-1.8
					c-2.2,0.4-5.9,1.8-8.7,1.1c-12.8-3.1,10.4-14.2,16.6-4.6c0.3,0.5,1.7-0.8,1.6-0.3c1.2-0.8,2.2-1.2,1.4-0.2c-0.8,0.9,0.1,0,0.1,0
					s2.7,0.1,2.5,1.2c-0.1,0.4-0.9,0.6-1.8,0.6c1,0.7,2.1,1.8,2.1,3.3c0,1.1-2.8,3.1-3.7,5.2C409,233.4,409.6,238.1,409,237.1z"/>
				<path class="st12" d="M431.5,289.6l1.9-4.5c4.2-4.9,12.4-13.1,16-18.5c0,0-0.3-3.4-0.3-4.1c0.1-0.7,1-4.6,1-4.6
					c1.6-2.9,1.2,3.6,3.1,3c2.2-0.7,7.6-2.1,10.2-2c6.3,0.3-5.3,6.4-5.9,6.9c-8.2,6.1-15.5,28.4-22.2,29.6
					C431,296.3,432.5,293.3,431.5,289.6z"/>
				<path class="st17" d="M410.4,253.1c12,9.9,20.1,27,20.1,27l-9.7,10.6C420.9,290.8,410.2,264,410.4,253.1z"/>
				<path class="st19" d="M378.6,308.8c-1-3.2-3.4-11.6-2.9-12.9c0.5-1.3,8.3-9.2,8.3-9.2l-4.9,38.9l9.9,9.1l7.3-14.5l1.3-32.7
					c0.2-3.7,2-36.7,1.8-36.7c-8.2,2-31.9,31-36.2,41.7c-3.3,8.2,1.8,10.6,10,23.1C375,318.2,379.6,312,378.6,308.8z"/>
				<path class="st19" d="M408.4,249.9c0.6,3.6-11.4,33.1-11.9,46.1c-0.5,14.7-0.1,12.6-0.2,22.1c-0.1,7.3,5.4,16.6,5.4,16.6l18-12
					l-1.7-35.4c0,0,9.2,15,13.6,16.1c4.3,1.1,22.4-27,22.4-27l-6.2-9.5l-13.8,15.5C434.1,282.5,423.5,256.2,408.4,249.9z"/>
				<path class="st14" d="M414.1,230.4c1.2-3.5,1.9-7.1-0.3-9.2c-2.1-2.1-3.2-0.9-3.7-2.4c-2.6-7.9-17.5-4.5-20.2-1.4
					c-3.3,3.8,14.6,7.2,15.4,7.6C406.1,225.5,411,235.3,414.1,230.4z"/>
				<g>
					<g>
						<polygon class="st20" points="396.7,295.4 389.1,266.8 395.1,261.1 390.5,260.2 396.3,251.9 396.8,252.2 391.4,259.8 
							396.2,260.8 389.7,266.9 396.9,294.1 413.4,268.3 408,261.8 413,259.1 410.1,251.7 410.6,251.5 413.7,259.3 408.8,262 
							414.1,268.3 414,268.4 						"/>
					</g>
					<g>
						<path class="st20" d="M396.4,320.7l-0.5,0c0-0.1,0.1-14,0.9-25.9l0.5,0C396.4,306.7,396.4,320.5,396.4,320.7z"/>
					</g>
				</g>
			</g>
		</g>
	</g>
</g>
</svg>
