<?xml version="1.0" encoding="utf-8"?>
<!-- Generator: Adobe Illustrator 26.0.3, SVG Export Plug-In . SVG Version: 6.00 Build 0)  -->
<svg version="1.1" id="Layer_1" xmlns="http://www.w3.org/2000/svg" xmlns:xlink="http://www.w3.org/1999/xlink" x="0px" y="0px"
	 viewBox="0 0 2600 2000" style="enable-background:new 0 0 2600 2000;" xml:space="preserve">
<style type="text/css">
	.st0{fill:#355389;}
	.st1{fill:#466EB6;}
	.st2{fill:#13375B;}
	.st3{fill:#F7A491;}
	.st4{fill:#3C8F7C;}
	.st5{fill:#50BFA5;}
	.st6{fill:#F47458;}
	.st7{fill:#F7CC7F;}
	.st8{fill:#F47257;}
	.st9{fill:#E0973F;}
	.st10{fill:#FAE0B2;}
	.st11{fill:#B75742;}
	.st12{fill:#184655;}
	.st13{fill:#FFFFFF;}
	.st14{fill:#F8A492;}
	.st15{fill:#9BC1F9;}
	.st16{fill:#F48C7F;}
	.st17{fill:#07345A;}
	.st18{fill:#96D9C9;}
	.st19{fill:#F79C8D;}
	.st20{fill:#FFF3D9;}
	.st21{fill:#FED333;}
</style>
<g>
	<g>
		<g>
			<g>
				<path class="st0" d="M1502.9,1780.9c0,0,186.1-91.8,218.1-139.6c32-47.9-15-50.6-15-50.6s83.1-80.8,71.4-114.8
					c-11.7-34-54.7-2.8-54.7-2.8s53.4-118.9,28.2-130.8c-46.9-22.3-112.7,105.6-112.7,105.6s14.1-55.6-18.2-53.8
					c-48.7,2.7-46.7,128.4-46.7,128.4s-5.5-48.2-34.9-32.5C1485.8,1518.1,1502.9,1780.9,1502.9,1780.9z"/>
			</g>
			<path class="st1" d="M1527.8,1470.6c22.9-12.7,45.8,24.5,45.8,24.5s-2.3-98.2,46.4-100.9c32.3-1.8,18.2,53.8,18.2,53.8
				s65.8-127.9,112.7-105.6l-248.2,436.6C1500.9,1748.3,1482.4,1495.8,1527.8,1470.6z"/>
		</g>
		<g>
			<g>
				<path class="st0" d="M1507.7,1782c0,0,152.2,18.9,191.6,2.1c39.4-16.8,11.2-37.7,11.2-37.7s84.6-16.6,91.2-42.6
					c6.5-26-32.5-23.9-32.5-23.9s81.1-52.5,70.3-70.2c-20.2-32.9-113.2,20.1-113.2,20.1s31.4-28.9,10.5-40.9
					c-31.5-18.1-81.3,61.1-81.3,61.1s3.1-19.5-21.6-21.7C1589.6,1624.4,1507.7,1782,1507.7,1782z"/>
			</g>
			<path class="st1" d="M1632.9,1614.1c24.7,2.2,22.6,35.9,22.6,35.9s50.7-93.9,82.2-75.8c20.9,12-3.8,51.4-3.8,51.4
				s85.4-48.8,105.6-15.9l-332.2,171.5C1518.5,1761.4,1591.5,1610.5,1632.9,1614.1z"/>
		</g>
	</g>
	<g>
		<g>
			<g>
				<path class="st0" d="M1109.8,1776.1c0,0-186.1-91.8-218.1-139.6c-32-47.9,15-50.6,15-50.6s-83.1-80.8-71.4-114.8
					c11.7-34,55.3-1.5,55.3-1.5s-54-120.2-28.8-132.1c46.9-22.3,112.7,105.6,112.7,105.6s-14.1-55.6,18.2-53.8
					c48.7,2.7,46.7,128.4,46.7,128.4s5.5-48.2,34.9-32.5C1126.9,1513.3,1109.8,1776.1,1109.8,1776.1z"/>
			</g>
			<path class="st1" d="M1084.9,1465.8c-22.9-12.7-45.8,24.5-45.8,24.5s2.3-98.2-46.4-100.9c-32.3-1.8-18.2,53.8-18.2,53.8
				s-65.8-127.9-112.7-105.6L1110,1774C1111.8,1743.5,1130.3,1491,1084.9,1465.8z"/>
		</g>
		<g>
			<g>
				<path class="st0" d="M1105,1777.2c0,0-152.2,18.9-191.6,2.1c-39.4-16.8-11.2-37.7-11.2-37.7s-84.6-16.6-91.2-42.6
					c-6.5-26,33.9-23.4,33.9-23.4s-82.5-53-71.7-70.7c20.2-32.9,113.2,20.1,113.2,20.1s-31.4-28.9-10.5-40.9
					c31.5-18.1,81.3,61.1,81.3,61.1s-3.1-19.5,21.6-21.7C1023.1,1619.6,1105,1777.2,1105,1777.2z"/>
			</g>
			<path class="st1" d="M976.3,1597.1c-24.7,2.2-24.3,26.1-24.3,26.1s-45.4-71.9-76.9-53.8c-20.9,12,3.8,51.4,3.8,51.4
				s-85.4-48.8-105.6-15.9l332.2,171.5C1094.2,1756.6,1017.6,1593.5,976.3,1597.1z"/>
		</g>
	</g>
	<g>
		<path class="st2" d="M1993.8,1330.1c4.6-11,9.2-22.1,21.1-27.6c9.6-4.5,19.7-2.8,28.2,3.6c24.2,18.2,3.1,38.3,30.7,72.8
			c8.6,10.7,18.9,19.4,24.1,32c7.2,17.6-1.4,26-15.1,34.5c-65.6,40.3-100-42.5-98.7-61.4C1985,1369.8,1990.9,1337.2,1993.8,1330.1z"
			/>
		<path class="st3" d="M1954.3,1697.2c3.2,14.6,8.3,27.4,9,28.9c0.3,0.7,3.3,3.3,3.7,4c-0.9,18-12,29.1-22.5,37
			c2-9.1,6.8-19.7,6.1-21.7c-1.2-3.2-5.8-17.7-15.3-35.8C1944.2,1708.4,1947.2,1702.9,1954.3,1697.2z"/>
		<path class="st0" d="M1994.8,1483.3l55.8,42.4c0,0-27.6,26.6-38,36.5c-10.4,9.9-74.4,55.9-75.3,58.2c-0.7,1.7,14.6,54.6,24.4,82.9
			c-5.9,6-18.9,11.9-26.6,13.9c-19.4-36.9-43.1-100-43.1-108.5C1892,1594.7,1994.8,1483.3,1994.8,1483.3z"/>
		<path class="st3" d="M2151.4,1567.9c-1.8,1.8-13.9,25.4-18.6,38c-6.8-4.3-10.8-9.3-18.4-12.2c6-8.6,17.6-29.3,18.5-34.3
			c2.3-11.7,4.9-13.4,4.9-13.4s39.2,13.3,41.8,17S2158.8,1560.8,2151.4,1567.9z"/>
		<path class="st4" d="M2132.6,1562.1c-3,0,0.3-13.7,1-16.9c0.8-3.6,2.8-4.6,3.4-4.8c1.4-0.3,45,14.4,52.4,19.7
			c0.5,0.4,1.4,1.5,1.5,1.7c4,7.5-31.9,9-37.1,5.7C2149.1,1564.6,2146.2,1562.1,2132.6,1562.1z"/>
		<path class="st1" d="M1982.9,1495.8c0,0,48.7-19.7,48.7-19.7c-0.2,0.1,0.3,2,0.3,2.1c4.6,17.8,29,10.9,39,41.8
			c7.1,21.8,17.5,103.5,17.5,103.5s7.4-14,30.3-39.9c1.8-2,24.4,13.5,24.4,13.5c-16.8,44.5-58.1,80.7-63.6,78.2
			c-37.7-17.3-83.1-153.9-83-153.9C1992.2,1513.2,1982.9,1495.8,1982.9,1495.8z"/>
		<path class="st3" d="M1981.1,1352.1c0,0-22.9-36.2-26.8-48.2c-4-12,0-69.4,0.3-73.5c0.4-4.1,14.2-15.2,12-18.4
			c-2.2-3.2-21.2-5.8-24.4-5.2c-3.2,0.6-9.4,0.1-12,2.6c-0.3,0.3,6.1,15.4,5.9,17.8c-0.9,16-10,66.8-7,80.6
			c3.4,15.8,37.4,66.4,37.4,66.4L1981.1,1352.1z"/>
		<path class="st3" d="M2064.1,1373.1c0,0,61.1,1.5,74.6,2.6c13.4,1.1,62.1-3,64-3.2c1.9-0.2,14.4-21.4,16.4-19.1
			c2.1,2.3-6.9,10.5-4.2,12.6c2.8,2.1,32.8-2.6,32.4-0.4c-0.7,4.1-18.2,3.6-18.2,5.6c0,2,18.3-1.1,19.5,2.2
			c1.2,3.3-17.6,1.4-18.3,2.8c-0.8,1.5,17.5,4.2,15.6,7.3c-1,1.7-16.1-2.8-16.1-0.5c0.1,2.3,11.1,7.5,9.8,9.3s-8.7-5.6-15.1-5.7
			c-6.4-0.1-11-3.4-21.2-0.6c-10.2,2.8-45,16.8-66.8,15.8s-70-3.2-70-3.2L2064.1,1373.1z"/>
		<path class="st5" d="M1974.3,1437c-0.8-10.1-2.2-37.3-1.8-40.6c-3.1-10.5-14.2-26-16.5-30.4c0,0,15.1-17.1,26.3-17
			c0,0,11.9,15,20.8,19.7c0.1,0,3.1,1.3,4.4,1.3c8.5-0.1,38.4-1,43.9,0.7l-3.2,46.1c-1.6,2.6-3.5,55.6-6.9,60
			c-3.3,4.4-51.3,24.2-59.3,19.1C1981.9,1495.6,1976,1457.4,1974.3,1437z"/>
		<path class="st5" d="M2035.9,1371.7c5.5-2.6,45.7-2.5,45.7-2.5s5.6,27.7,1.1,34.4c0,0-35.6,5.3-34.6,8.2L2035.9,1371.7z"/>
		<path class="st3" d="M2027,1353c0,0-3.1,16-2.5,22.3c0.6,6.3-2.4,26.6-15.7,26.7c-13.3,0.1-2.5-25.8-1.3-32
			c1.3-6.2,1.6-25.3,1.6-25.3L2027,1353z"/>
		<path class="st6" d="M2008.8,1354.3c0.2-5.2,0.3-9.6,0.3-9.6l17.9,8.3c0,0-0.6,3.3-1.3,7.4
			C2017.9,1362,2012.2,1359.1,2008.8,1354.3z"/>
		<path class="st3" d="M2033.5,1308.9c0,0,6.9,3.8,9.4,12.1c2.5,8.3-0.3,29.7-18.2,34.9s-25.5-11.8-21.9-25
			S2014.6,1300.8,2033.5,1308.9z"/>
		<path class="st3" d="M2000.7,1325.7c0.3,3.6,2.3,6.3,4.4,6.1s3.5-3.3,3.1-6.8s-2.3-6.3-4.4-6.1
			C2001.7,1319.1,2000.3,1322.1,2000.7,1325.7z"/>
		<path class="st4" d="M1963.5,1726.6c1-2.9,12.7,5.7,15.4,7.5c3.1,2,3.4,4.3,3.3,4.8c-0.1,1.4-27.8,38-36.1,43.2
			c-0.8,0.5-2.5,0.6-3,0.4c-4.8-1.6,1.9-31,7.8-37C1954.9,1741.5,1958.9,1739.4,1963.5,1726.6z"/>
		<g>
			<path class="st7" d="M2065,1179.8l-49.1,17.5c-2.5,0.9-4.4,3-5.1,5.5l-13.4,50.5c-1.7,6.5-10.1,8.1-14.2,2.8l-31.8-41.5
				c-1.6-2.1-4.2-3.3-6.8-3.2l-52,2.7c-6.7,0.3-10.9-7.1-7.1-12.7l29.4-43.1c1.5-2.2,1.8-5,0.9-7.5l-18.7-48.8
				c-2.4-6.3,3.4-12.6,9.8-10.7l50,14.8c2.5,0.8,5.3,0.2,7.4-1.5l40.5-32.9c5.2-4.2,13-0.6,13.1,6.1l1.4,52.2
				c0.1,2.7,1.4,5.1,3.7,6.6l43.7,28.5C2072.3,1169.1,2071.3,1177.6,2065,1179.8z"/>
		</g>
		<path class="st3" d="M1966.3,1212.5c1.8,2.7-8.1,11.2-10.8,15.9l-6.2-8.5C1952.3,1219.3,1964.2,1209.4,1966.3,1212.5z"/>
		<path class="st2" d="M2031.4,1307.8c0,0,3.2,23.9,11,28.2s4.5,14.9,4.5,14.9s7-24.6,0.9-32.5
			C2041.7,1310.5,2031.4,1307.8,2031.4,1307.8z"/>
		<path class="st3" d="M2037.8,1339.4c-2.1,3.1-2.1,6.8,0,8.2c2.1,1.4,5.5,0,7.6-3.1c2.1-3.1,2.1-6.8,0-8.2
			S2039.9,1336.3,2037.8,1339.4z"/>
		<path class="st8" d="M1951.3,1214.5c0,0.1,0.1,0.1,0.1,0.2l2.3,2.9c-1.7-0.5-4.8-1.3-7.9,0.8
			C1945.8,1218.3,1946.8,1216.2,1951.3,1214.5z"/>
	</g>
	<g>
		<g>
			<path class="st3" d="M609.7,1479.8c0.6,0.2-8,11.3-16.3,19.1c-6.7,8.4-13,18.4-15.2,29.3c-3.3,16.5-0.6,98.3-3.4,104.1
				c-24.7,24.1-42.5,84.6-47.5,103c-1,3.6-3,6.8-5.7,9.4l0,0l1.1,20.9l12.2,11.3c0,0-2.7-17,2.7-29.6c0,0,62.1-94,65.8-101.2
				c7-20.5,32.7-125.3,32.7-125.3l6-24.1C642.1,1496.6,609.8,1479.8,609.7,1479.8z"/>
			<path class="st6" d="M508.2,1751.3c0,0,7.8,11.9,8.4,16.6c0.7,4.7,4.8,15.2,9.4,15.9c1,0.2,18.8,1.5,18.7-0.8
				c-0.1-1.7-6.5-4.1-9.5-6.2c-5.2-3.6-13.2-32.6-13.2-32.6S508.5,1747.6,508.2,1751.3z"/>
		</g>
		<path class="st3" d="M662.8,1516c0,0,40,85.5,40.2,100.5c0.2,12.9-7,85.2-5,145.4c0.1,2.2,2.8,5.1,6.8,6.9
			c2.3,1,13.1,5.9,13.1,5.9l1.5,3.9l-37.5-2.7l-0.5-10.2c0,0-14.9-90-13.4-115.5c0.2-4,2.2-28,2.2-28l-45.1-87.1l28.4-37.3
			L662.8,1516z"/>
		<path class="st0" d="M666.5,1324.1c-6.1-16.1-21.9-25.9-38.4-22.9c-5.1-8.2-13.5-14.2-22.7-16.2c-18.1-3.9-42.6,3.3-41.9,22.4
			c-7,12.9-7.3,31.3,3.5,41.1c-3.7,17.3,12.5,34,33.5,33.4c7.3,12.1,21.3,19.9,35.2,18.2c3.3-0.4,8.4-1.2,9.3-1
			c-1.1-0.2,22.3,17.7,42.2-9.8C707.5,1361.2,693.3,1327.1,666.5,1324.1z"/>
		<path class="st3" d="M664.2,1227.3c1-2.3,2.2-4.5,3.6-6.6l1.6-2.3c0.2-0.4,0.3-0.7,0.4-1c0.7-2,0.2-8.5,0.2-8.5l-13.7,3.3l-3,7.9
			c-3-1.4-8.2-12-10.1-9.4c-2.2,3,6.2,16,6.9,19.5c0.7,3.5-7.3,58.2-9.6,69.1c-2.3,10.9-17.8,41.2-17.8,41.2l14.2,18
			c0,0,22.7-46.2,24.2-60.3c0.2-1.5,0.3-3.7,0.5-6.5L664.2,1227.3z"/>
		<path class="st3" d="M569.9,1398.6l-16.8-14.2c0,0-13.6,22.7-24.5,41.2c-10.8-3.9-38.8-22.1-40.1-23c-1.4-0.8-4.4-21.4-6.8-20.3
			c-2.4,1.1,1.8,10.9-1.1,11.6c-2.9,0.7-24.4-13.6-24.8-11.7c-0.8,3.6,12.8,9.3,12.2,10.9c-0.7,1.6-13.7-7.3-15.8-5.1
			c-2.1,2.2,13.1,7.3,13.2,8.7c0.1,1.5-14.9-2.8-14.5,0.4c0.2,1.7,13.4,3.4,12.6,5.2c-0.8,1.8-11.1,2.1-10.7,4.1
			c0.4,1.9,8.6-1.4,13.5,0.7c5,2.2,9.6,1.1,16.6,7c6.9,5.8,41,39.2,51.6,36.4C543.7,1447.8,569.9,1398.6,569.9,1398.6z"/>
		<g>
			<path class="st6" d="M571.2,1618.7C571.2,1618.7,571.2,1618.7,571.2,1618.7C571.2,1618.7,571.2,1618.7,571.2,1618.7z"/>
			<path class="st6" d="M628.3,1377.4c1.1-6.6,11.2-23,12.9-27.1c0,0-11.8-15-21.4-13.9c0,0-12.9,21.3-20.2,22
				c-7.3,0.7-33,1.8-37.5,4.6c-4.5,2.7-23.6,32.1-23.6,32.1s17.2,17.6,24.1,17.5c0,0,3.7-7.2,5.1-8.8c1,3.4,17.1,55.3,17,67l0.1,0.1
				c15,12.1,36.8,9.3,48.4-6.2l0,0c0,0-1.4-16.2-0.6-31.1C633.9,1410.3,638.6,1397.9,628.3,1377.4z"/>
			<path class="st1" d="M711.7,1578.2l-78.5-113.4c-4.8,2-9.4,3.7-14.6,4.7c-11.3,2.2-22.5,1.8-33.9,1.5c0,0.4,0,0.8-0.1,1.1
				c-1.3,9.3-13.7,23.8-16.3,52.2c-2.9,32.2-1.1,88.1-0.2,91.8C620.4,1609.7,696.9,1593.7,711.7,1578.2z"/>
		</g>
		<g>
			<path class="st6" d="M666,1218.8c0,0-4.9,3.3-9.1,2.2c-4.2-1.1-6.1-2.6-6.1-2.6s2.3,4.2,5.7,6.1
				C662.4,1227.6,666,1218.8,666,1218.8z"/>
			<path class="st7" d="M568.7,1195.4l45.6-9.4c2.3-0.5,4.7,0.3,6.4,2l33.4,33.9c4.3,4.4,11.5,1.7,12.2-4.5l5.4-48.2
				c0.3-2.5,1.7-4.6,3.8-5.8l41.1-22.6c5.3-2.9,5.1-10.9-0.3-13.5L674,1107c-2.2-1-3.7-3.1-4.1-5.6l-7.9-47.9
				c-1-6.1-8.3-8.4-12.4-3.8l-31.6,35.6c-1.6,1.8-4,2.7-6.3,2.3l-46-7c-5.9-0.9-10.2,5.7-7.3,11.1l22.8,42.4c1.2,2.2,1.2,4.8,0.2,7
				l-20.5,43.5C558.2,1190.3,562.8,1196.6,568.7,1195.4z"/>
		</g>
		<path class="st3" d="M586.4,1339.6c0,0,2.8,14.9,2.2,20.7c-0.6,5.9,2.1,24.8,14,24.8c11.9,0.1,2.3-24,1.1-29.8
			c-1.1-5.7-1.4-23.5-1.4-23.5L586.4,1339.6z"/>
		<path class="st6" d="M602.6,1340.8c-0.2-4.9-0.2-8.9-0.2-8.9l-16,7.8c0,0,0.6,3,1.1,6.9C594.5,1348,599.6,1345.3,602.6,1340.8z"/>
		<path class="st3" d="M580.6,1298.6c0,0-6.2,3.6-8.4,11.3c-2.3,7.7,0.3,27.6,16.2,32.4c15.9,4.8,22.8-11,19.5-23.3
			C604.6,1306.7,597.5,1291.1,580.6,1298.6z"/>
		<path class="st3" d="M609.9,1314.2c-0.3,3.3-2.1,5.8-3.9,5.6c-1.9-0.2-3.1-3-2.8-6.3c0.3-3.3,2.1-5.8,3.9-5.6
			C609,1308.1,610.2,1310.9,609.9,1314.2z"/>
		<path class="st3" d="M576.7,1327c1.9,2.9,1.9,6.3,0,7.6c-1.9,1.3-4.9,0-6.8-2.9c-1.9-2.9-1.9-6.3,0-7.6
			C571.8,1322.8,574.9,1324.1,576.7,1327z"/>
		<path class="st3" d="M668.3,1200.6c-3.1-0.6-16.1,9.7-16,11.2c0.1,1.6,12.9-5,13.2-3.9c0.3,0.8-14.3,4.6-13.5,6.1
			c0.5,1,13.6-1.8,13.9-1.1c0.5,1-10.9,1.4-10.1,2.5c0.9,1.3,11.7,0.8,11.7,0.8s2.2-3.5,2.4-4.8c0.1-0.6,0.1-1.4,0.1-2.3
			c0-0.7,0.3-1.4,0.2-2.2C669.7,1203.6,670,1201,668.3,1200.6z"/>
		<path class="st3" d="M650.9,1208.5l-4.9,6l-3.2-2.4c0,0-0.3-0.5,0.1-1.3C643.3,1209.9,650.8,1206.3,650.9,1208.5z"/>
		<path class="st6" d="M681.9,1783h47.4c1.8-0.2,2.2-1.6,1.6-2.4c-1.3-1.8-6.8-3.1-13-6c-10.9,1.1-34.6-6.3-36.3-8.8
			C680.5,1770.8,680.9,1782.8,681.9,1783z"/>
		<path class="st3" d="M646.4,1214.1c0,0,6.4,3.9,9.1,8.5c2.7,4.6,1.4,8.4,1.4,8.4l-11-13.6L646.4,1214.1z"/>
	</g>
	<g>
		<path class="st9" d="M1587.8,678.2c-1.1,5.4-2.2,10.9-5,15.4c-4.8,5.8-9.3,11.8-13.7,18c3-0.2,6-0.3,9-0.3
			c29.7,0,57.3,10.4,77.7,29.4c18.3,17,28.4,38.7,28.4,61.2c0,22.5-10.1,44.2-28.4,61.2c-20.5,19-48.1,29.4-77.7,29.4
			c-29.6,0-57.1-10.4-77.6-29.3c-1.5,4.4-3,8.8-4.5,13.2c-10,5.1-17,17-17,30.9c0,18.5,12.4,33.5,27.8,33.5
			c12.1,0,22.3-9.3,26.1-22.3c14.1,4.7,29.3,7.3,45.2,7.3c73.9,0,133.7-55.5,133.7-124C1711.9,736.4,1657.1,682.8,1587.8,678.2z"/>
		<path class="st9" d="M988.1,678.2c1.1,5.4,2.2,10.9,5,15.4c4.8,5.8,9.3,11.8,13.7,18c-3-0.2-6-0.3-9-0.3
			c-29.7,0-57.3,10.4-77.7,29.4c-18.3,17-28.4,38.7-28.4,61.2c0,22.5,10.1,44.2,28.4,61.2c20.5,19,48.1,29.4,77.7,29.4
			c29.6,0,57.1-10.4,77.6-29.3c1.5,4.4,3,8.8,4.5,13.2c10,5.1,17,17,17,30.9c0,18.5-12.4,33.5-27.8,33.5c-12.1,0-22.3-9.3-26.1-22.3
			c-14.1,4.7-29.3,7.3-45.2,7.3c-73.9,0-133.7-55.5-133.7-124C864,736.4,918.8,682.8,988.1,678.2z"/>
		<path class="st7" d="M1607,664.1v34.2c0,154.7-125.4,280.2-280.2,280.2c-71.3-0.9-120.2,6.4-187.8-23.5
			c-97.5-42.7-167.7-140.7-167.7-256.6v-34.2H1607z"/>
		<path class="st10" d="M1139.1,955c0.1,0,0.1,0.1,0.2,0.1l100.7-291h-104.8l-80.7,233.3C1078.8,921.5,1107.5,941.1,1139.1,955z"/>
		<path class="st10" d="M1204.6,974.6l106.3-310.5h-52.7L1156.3,962C1173.2,968.2,1189,972.1,1204.6,974.6z"/>
		<path class="st10" d="M1044.2,886.7l79.5-222.6h-25l-71.9,201.4C1032.2,872.9,1038.1,879.9,1044.2,886.7z"/>
		<path class="st7" d="M1579.3,644.7h-578.5c-21.1,0-38.3,11.8-39.5,26.6h657.6C1617.6,656.5,1600.4,644.7,1579.3,644.7z"/>
		<polygon class="st7" points="1181.8,970.3 1214.5,1138.4 1357.7,1138.4 1398.2,970.3 		"/>
		<polygon class="st11" points="1398.2,970.3 1389.1,1008.2 1189.2,1008.2 1181.8,970.3 		"/>
		<polygon class="st7" points="1398.2,1346.2 1181.8,1346.2 1198,1262.8 1214.5,1178.2 1357.7,1178.2 1378.1,1262.8 		"/>
		<polygon class="st11" points="1398.2,1346.2 1181.8,1346.2 1198,1262.8 1378.1,1262.8 		"/>
		<path class="st10" d="M1382.8,1138.4h-193.4c-8.5,0-15.4,6.9-15.4,15.4v8.9c0,8.5,6.9,15.4,15.4,15.4h193.4
			c8.5,0,15.4-6.9,15.4-15.4v-8.9C1398.2,1145.3,1391.3,1138.4,1382.8,1138.4z"/>
		<g>
			<path class="st7" d="M1414.2,1334.9h-255.6v-45.9c0-4.9,4-9,9-9h237.7c4.9,0,9,4,9,9V1334.9z"/>
			<path class="st7" d="M1498.7,1367.7v16.7h-424.6v-16.7c0-19.2,11.7-34.8,26.2-34.8h372.2
				C1486.9,1332.8,1498.7,1348.4,1498.7,1367.7z"/>
			<polygon class="st10" points="1174,1332.8 1160.6,1384.4 1142.9,1384.4 1156.3,1332.8 			"/>
			<polygon class="st10" points="1148.7,1332.8 1135.2,1384.4 1117.5,1384.4 1131,1332.8 			"/>
			<polygon class="st10" points="1196.6,1332.8 1183.2,1384.4 1165.4,1384.4 1178.9,1332.8 			"/>
		</g>
		<g>
			<path class="st7" d="M1656.8,1765.7v16.7H945.3v-16.7c0-19.2,19.7-34.8,43.9-34.8h623.7
				C1637.1,1730.9,1656.8,1746.5,1656.8,1765.7z"/>
			<polygon class="st10" points="1112.8,1730.9 1090.3,1782.4 1060.6,1782.4 1083.1,1730.9 			"/>
			<polygon class="st10" points="1070.3,1730.9 1047.8,1782.4 1018,1782.4 1040.6,1730.9 			"/>
			<polygon class="st10" points="1150.6,1730.9 1128.1,1782.4 1098.3,1782.4 1120.9,1730.9 			"/>
		</g>
		<path class="st7" d="M1471.3,938.6v12.6c0,21.8-17.7,39.5-39.4,39.5h-285c-21.8,0-39.5-17.7-39.5-39.5v-12.6H1471.3z"/>
		<polygon class="st4" points="1558.1,1730.9 1022.6,1730.9 1029.2,1384.4 1550.9,1384.4 		"/>
		<polygon class="st5" points="1430.7,1730.9 1150,1730.9 1153.4,1384.4 1427,1384.4 		"/>
	</g>
	<path class="st12" d="M2136.5,1782.4H355.3c-2.2,0-4,1.8-4,4l0,0c0,2.2,1.8,4,4,4h1781.2c2.2,0,4-1.8,4-4l0,0
		C2140.6,1784.2,2138.8,1782.4,2136.5,1782.4z"/>
	<g>
		<g>
			<polygon class="st11" points="1376.5,1720.4 1334,1651.1 1271.6,1703.2 1335.8,1312.3 1440.7,1329.5 			"/>
			<polygon class="st11" points="1570.4,1703 1507.9,1651.1 1465.6,1720.5 1400.5,1329.7 1505.3,1312.2 			"/>
		</g>
		<path class="st6" d="M1656.8,1402.3c0,22.6-19.9,41.7-26.5,62.1c-6.9,21.1-2.2,48.3-15,65.9c-12.9,17.8-40.3,21.7-58,34.6
			c-17.6,12.8-29.7,37.7-50.8,44.5c-20.4,6.6-44.7-6.1-67.3-6.1c-22.6,0-46.9,12.8-67.3,6.1c-21.1-6.9-33.3-31.7-50.8-44.5
			c-17.8-12.9-45.1-16.9-58-34.6c-12.8-17.6-8.2-44.7-15-65.9c-6.6-20.4-26.5-39.5-26.5-62.1c0-22.6,19.9-41.7,26.5-62.1
			c6.9-21.1,2.2-48.3,15-65.9c12.9-17.8,40.3-21.7,58-34.6c17.6-12.8,29.7-37.7,50.8-44.5c20.4-6.6,44.7,6.1,67.3,6.1
			c22.6,0,46.9-12.8,67.3-6.1c21.1,6.9,33.3,31.7,50.8,44.5c17.8,12.9,45.1,16.9,58,34.6c12.8,17.6,8.2,44.7,15,65.9
			C1636.9,1360.5,1656.8,1379.7,1656.8,1402.3z"/>
		<path class="st7" d="M1493.3,1595.5c-6.8,0-14.8-1.8-23.2-3.6c-10-2.2-20.2-4.4-31-4.4c-10.8,0-21.1,2.3-31,4.4
			c-8.4,1.9-16.4,3.6-23.2,3.6c-3.1,0-5.8-0.4-8.2-1.1c-8.7-2.8-16.5-11.7-24.8-21.1c-6.5-7.4-13.3-15.1-21.6-21.2
			c-8.4-6.1-17.9-10.3-27.1-14.2c-11.4-5-22.2-9.6-27.5-16.9c-5.2-7.1-6.3-18.8-7.5-31.1c-1-10-2-20.3-5.2-30.3
			c-3.1-9.6-8.3-18.3-13.3-26.7c-6.4-10.8-12.5-21.1-12.5-30.5c0-9.4,6.1-19.7,12.5-30.5c5-8.4,10.1-17.1,13.3-26.7
			c3.3-10,4.3-20.3,5.2-30.3c1.2-12.3,2.4-24,7.5-31.1c5.3-7.3,16.1-11.9,27.5-16.9c9.2-4,18.7-8.1,27.1-14.2
			c8.3-6.1,15.1-13.7,21.6-21.2c8.3-9.4,16.1-18.3,24.8-21.1c2.3-0.8,5-1.1,8.2-1.1c6.8,0,14.8,1.7,23.2,3.6c10,2.2,20.2,4.4,31,4.4
			c10.8,0,21.1-2.3,31-4.4c8.4-1.9,16.4-3.6,23.2-3.6c3.1,0,5.8,0.4,8.2,1.1c8.7,2.8,16.5,11.7,24.8,21.1
			c6.5,7.4,13.3,15.1,21.6,21.2c8.4,6.1,17.9,10.3,27.1,14.2c11.4,5,22.2,9.6,27.5,16.9c5.2,7.1,6.3,18.8,7.5,31.1
			c1,10,2,20.3,5.2,30.3c3.1,9.6,8.3,18.3,13.3,26.7c6.4,10.8,12.5,21.1,12.5,30.5c0,9.5-6.1,19.7-12.5,30.5
			c-5,8.4-10.1,17.1-13.3,26.7c-3.2,10-4.3,20.3-5.2,30.3c-1.2,12.3-2.4,24-7.5,31.1c-5.3,7.3-16.1,11.9-27.5,16.9
			c-9.2,4-18.7,8.1-27.1,14.2c-8.3,6.1-15.1,13.7-21.6,21.2c-8.3,9.4-16.1,18.3-24.8,21.1
			C1499.1,1595.1,1496.5,1595.5,1493.3,1595.5z"/>
		
			<ellipse transform="matrix(0.1385 -0.9904 0.9904 0.1385 -148.9796 2633.29)" class="st6" cx="1439.1" cy="1402.3" rx="158.6" ry="158.6"/>
		<circle class="st13" cx="1439.1" cy="1402.3" r="150.7"/>
		
			<ellipse transform="matrix(9.843127e-02 -0.9951 0.9951 9.843127e-02 -98.0552 2696.3169)" class="st7" cx="1439.1" cy="1402.3" rx="136.6" ry="136.6"/>
		<g>
			<path class="st13" d="M1365.3,1459.9l5.1-38.3h-16v-11.5h17.8l3.7-28.4H1359v-11.5h18.6l5.1-37.4h11.3l-4.9,37.4h20.3l5.1-37.4
				h11.5l-4.9,37.4h16v11.5h-17.8l-3.5,28.4h16.8v11.5h-18.6l-5.1,38.3h-11.7l5.1-38.3h-20.3l-5.1,38.3H1365.3z M1404.2,1410.1
				l3.7-28.4h-20.3l-3.7,28.4H1404.2z"/>
			<path class="st13" d="M1490.5,1348.9h-0.4l-22.1,11.9l-3.3-13.1l27.8-14.9h14.7v127.1h-16.6V1348.9z"/>
		</g>
	</g>
	<g>
		<g>
			<path class="st14" d="M1597.8,439.8c-1.5,6.1-4.2,15.8-4.2,15.8c0.2,2.7,1,13.8,1.9,27.3l-20-8c0,0,0.2-22.1-0.7-23.5
				c-0.8-1.1-2,0.3-8.1-8.5c-1.8-2.5-2.1-7-2.1-7s-0.4-5.6,0.9-6.1c1.2-0.5,2.7,0.3,3.1,1.3c0.5,1,0.3,3.2,0.8,4.2
				c0.5,1,3.3,2.1,4.6,2.1c1.2-0.1-0.2-16.4-0.2-16.4s-0.7-4.6-1-6.2c-0.3-1.3-1.5-5.1-1.5-5.1s-1.4-5.5,0.3-5.9
				c1-0.2,3.6,4.2,5.3,9c1.9,5.1,3,10.6,3.5,10.5c1.3-0.2,0.6-9.2,0.6-9.2s-1.3-4.1-1.2-6.1c-1.2-2.4-2-6.8,0.1-7.2
				c0.4-0.1,3.2,5.5,3.2,5.5s1.1,3.9,1.7,5.8c1.1,3.3,1.3,8.4,1.9,10.7c0.5,1.9,0.9,1.1,1.1,1.2c0.2,0.1-0.1-2.5-0.4-6.1
				c-0.2-1.8,0.1-3.9-0.5-5.9c-0.5-1.9-0.7-4.6-0.9-6.3c-0.3-4.6,2.6-4.2,3.6,0.1c0.4,1.6,0.8,3.4,1.2,5.2c1.6,7,1.5,13.7,2.3,13.7
				c1,0.1,0.3-12.1,0.3-12.1s1.5-6.8,3-0.5c1.7,7.3,1.5,13.2,1.5,13.5C1598,427.3,1599.2,433.7,1597.8,439.8z"/>
			<path class="st4" d="M1596.5,466.6c0,0-22.5-5.4-22.7-3.6c-4.7,39.6-6.9,53.9-7.7,54.3c-2.7,1.4-38.9-31.7-45.3-33.9
				c-3.1-1.1-6.4-0.9-9.7-0.8c-7.7,0.2-9.2,0.3-9.2,0.3c-0.2,0-0.3,0-0.3,0l0,7.2c8.6,7.8,28.4,125.5,30.1,125.4
				c1.9-0.1,41,9.8,40.3,6.5c-0.1-0.5-26.5-22.1-34-53.3c-2.5-10.5-3.8-21.7-5.1-31.6c8.7,4.4,42.6,21,48,18.8
				C1597.6,549.1,1596.5,466.6,1596.5,466.6z"/>
			<path class="st3" d="M1663.8,675.6c0,0,36.4,28.5,37.6,33.5c1.7,7.3,35.1-2.3,27-3.8c-1.8-0.3-7.8-1.8-8.2-2.1
				c-2.6-1.4-35-40.4-35-40.4L1663.8,675.6z"/>
			<path class="st11" d="M1744,705.4l-23.2-1.9c0,0-6.6,5.5-19.4,5.8c0,0-2,5.8-1.1,12.6c0.2,1.2,0.4,4.7,1.5,4.6
				c4.3-0.3,15.7-3.1,28.7-5.7c0,0,17.5-3.7,27.6-9.8C1768.3,705,1744,705.4,1744,705.4z"/>
			<path class="st2" d="M1500.8,604.1c0,0,26.6,4.5,56.1-2.4c34.1-8,71.8-15.3,82.8-8.9c8.9,5.2,64.4,89,64.4,89l-21.4,15.6
				l-61.1-68.4c0,0-78,28.8-95.5,25.6C1486.2,647.4,1485.6,615.5,1500.8,604.1z"/>
			<polygon class="st2" points="1529.9,587.2 1556.6,618.9 1507.1,634 1500.8,604.1 			"/>
			<path class="st3" d="M1584.1,731.9c0,0-1.6,44-2.6,51.4c-1,7.4,18.7,29.8,16.2,22c-0.6-1.8-2.1-7.7-2.1-8.3
				c0-2.9,7.3-53.1,7.3-53.1L1584.1,731.9z"/>
			<path class="st11" d="M1610.2,821.3l-14.5-23.6c0,0-8-3.2-14.3-14.3c0,0-6.1,1-11.6,5.1c-1,0.7-7.5,5.5-7,6.6
				c1.7,4,10.5,12.7,20.2,22.1c0,0,13.7,11.1,23.9,17.1C1616.9,840.3,1610.2,821.3,1610.2,821.3z"/>
			<path class="st0" d="M1627.3,645.2c-9.3-12.4-84.5-24.2-84.5-24.2l-21-40.3l-46.3,28.6c0,0,4.6,36.9,8.1,46.7
				c4.6,13.1,35.8,13.8,54.8,13.6c17.5-0.2,49.5,3.4,49.5,3.4l-10.8,95.4c0,0,21.3,4.8,27.2,4.1
				C1605,772.3,1638.8,660.6,1627.3,645.2z"/>
			<path class="st15" d="M1501.9,482.9l-26.1,1.5c0,0-0.6,0.2-0.8,0.2c-2.1,0.4-0.2,76.6,1.7,105.1c1.9,28.5,5.8,40.4,5.8,40.4
				s35.5-6.3,46.3-10.5c4.5-1.8,15.4-15.4,15.4-15.4s-11.2-15-16.8-39.4c-4.3-18.8-9.7-52.2-12.8-59.1
				C1507.6,489.7,1501.9,482.9,1501.9,482.9z"/>
		</g>
		<path class="st3" d="M1476.5,461.3l-0.7,23.1c0,0,16.9,29.2,25.6,25.1c7.3-3.4,0.8-25.6,0.8-25.6s-1.3-5.1-3-10.9
			c-1.2-4.1-2.2-8.5-2.2-11.8C1497.2,453.3,1476.5,461.3,1476.5,461.3z"/>
		<path class="st6" d="M1497,461.2c0.2-7.9-20.5,0.1-20.5,0.1l-0.1,2.3c0.7,1.1,1.5,1.9,2.3,2.6c5.6,4.5,13.6,6.6,20.2,5.8
			C1497.8,468.2,1496.9,464.2,1497,461.2z"/>
		<g>
			<path class="st12" d="M1496.7,408.7c0,0,8.6,13,9.3,23.9c0.6,10.9-1.7,18.4-1.7,18.4l-27.7-33.1L1496.7,408.7z"/>
			<path class="st16" d="M1508.9,430.4c0.4,3.8-1.1,7.1-3.3,7.3c-2.2,0.2-4.3-2.7-4.7-6.5c-0.4-3.8,1.1-7.1,3.3-7.3
				C1506.3,423.6,1508.5,426.5,1508.9,430.4z"/>
			<path class="st3" d="M1467.7,423.2c-0.6-0.1-0.6,31.7,8.7,39.2c9.2,7.5,25.3,8.2,30,0.6c5.2-8.4,0.3-41.9-13.5-49
				S1467.7,423.2,1467.7,423.2z"/>
			<path class="st12" d="M1465.3,403.5c-7,6.2-10.5,10.7-15.2,21.7c-5.9,13.5,5.8,27.5,15.5,33.1s10.6,12.3,10.6,12.3l0.4-4.1
				c0.2-1.5,0.1-2.7-0.1-3.8c-0.3-1.3-0.9-2.3-1.4-3.4c-0.8-1.8-3.5-7.9-4.5-9.5c-2.7-4.2-3.3-5.1-1.9-9.2c1-3.1-0.2-9.9,1.4-15
				l13.1-2.8c0,0,8.2-2,12.4-6.8C1507.5,402.2,1483.9,386.9,1465.3,403.5z"/>
			<path class="st3" d="M1471.7,444c1.6,3.5,1.3,7.1-0.8,8c-2,0.9-5-1.1-6.6-4.6c-1.6-3.5-1.3-7.1,0.7-8
				C1467.2,438.5,1470.1,440.6,1471.7,444z"/>
		</g>
		<path class="st14" d="M1382.3,356.2c1.5,6.1,4.2,15.8,4.2,15.8c-0.2,2.7-1,13.8-1.9,27.3l20-8c0,0-0.2-22.1,0.7-23.5
			c0.8-1.1,2,0.3,8.1-8.5c1.8-2.5,2.1-7,2.1-7s0.4-5.6-0.9-6.1c-1.2-0.5-2.7,0.3-3.1,1.3c-0.5,1-0.3,3.2-0.8,4.2
			c-0.5,1-3.3,2.1-4.6,2.1c-1.2-0.1,0.2-16.4,0.2-16.4s0.7-4.6,1-6.2c0.3-1.3,1.5-5.1,1.5-5.1s1.4-5.5-0.3-5.9c-1-0.2-3.6,4.2-5.3,9
			c-1.9,5.1-3,10.6-3.5,10.5c-1.3-0.2-0.6-9.2-0.6-9.2s1.3-4.1,1.2-6.1c1.2-2.4,2-6.8-0.1-7.2c-0.4-0.1-3.2,5.5-3.2,5.5
			s-1.1,3.9-1.7,5.8c-1.1,3.3-1.3,8.4-1.9,10.7c-0.5,1.9-0.9,1.1-1.1,1.2c-0.2,0.1,0.1-2.5,0.4-6.1c0.2-1.8-0.1-3.9,0.5-5.9
			c0.5-1.9,0.7-4.6,0.9-6.3c0.3-4.6-2.6-4.2-3.6,0.1c-0.4,1.6-0.8,3.4-1.2,5.2c-1.6,7-1.5,13.7-2.3,13.7c-1,0.1-0.3-12.1-0.3-12.1
			s-1.5-6.8-3-0.5c-1.7,7.3-1.5,13.2-1.5,13.5C1382.1,343.7,1380.8,350.1,1382.3,356.2z"/>
		<path class="st4" d="M1475.8,484.4c0,0-25.9-1.2-32.6-4.2c-4.1-1.8-37.4-28.7-37.4-28.7l0.4-71.9l-23.4-1.8
			c0,0-12.1,79.4-7.9,88.1c4.3,9,53.1,45.9,62.9,62c5.6,9.2,17.3,134.9,19.1,136c12.6,6.6,51.6,13.1,50.7,9.1
			C1482,563.1,1475.8,484.4,1475.8,484.4z"/>
	</g>
	<g>
		<path class="st14" d="M1010.6,807.5c1.5,6.1,4.2,15.8,4.2,15.8c-0.2,2.7-1,13.8-1.9,27.3l20-8c0,0-0.2-22.1,0.7-23.5
			c0.8-1.1,2,0.3,8.1-8.5c1.8-2.5,2.1-7,2.1-7s0.4-5.6-0.9-6.1c-1.2-0.5-2.7,0.3-3.1,1.3c-0.5,1-0.3,3.2-0.8,4.2
			c-0.5,1-3.3,2.1-4.6,2.1c-1.2-0.1,0.2-16.4,0.2-16.4s0.7-4.6,1-6.2c0.3-1.3,1.5-5.1,1.5-5.1s1.4-5.5-0.3-5.9c-1-0.2-3.6,4.2-5.3,9
			c-1.9,5.1-3,10.6-3.5,10.5c-1.3-0.2-0.6-9.2-0.6-9.2s1.3-4.1,1.2-6.1c1.2-2.4,2-6.8-0.1-7.2c-0.4-0.1-3.2,5.5-3.2,5.5
			s-1.1,3.9-1.7,5.8c-1.1,3.3-1.3,8.4-1.9,10.7c-0.5,1.9-0.9,1.1-1.1,1.2c-0.2,0.1,0.1-2.5,0.4-6.1c0.2-1.8-0.1-3.9,0.5-5.9
			c0.5-1.9,0.7-4.6,0.9-6.3c0.3-4.6-2.6-4.2-3.6,0.1c-0.4,1.6-0.8,3.4-1.2,5.2c-1.6,7-1.5,13.7-2.3,13.7c-1,0.1-0.3-12.1-0.3-12.1
			s-1.5-6.8-3-0.5c-1.7,7.3-1.5,13.2-1.5,13.5C1010.4,795,1009.1,801.3,1010.6,807.5z"/>
		<path class="st14" d="M1222.6,791.3c-1.5,6.1-4.2,15.8-4.2,15.8c0.2,2.7,1,13.7,1.9,27.3l-20-8c0,0,0.2-22.1-0.7-23.5
			c-0.8-1.1-2,0.3-8.1-8.5c-1.8-2.5-2.1-7-2.1-7s-0.4-5.6,0.9-6.1c1.2-0.5,2.7,0.3,3.1,1.3c0.5,1,0.3,3.2,0.8,4.2
			c0.5,1,3.3,2.1,4.6,2.1c1.2-0.1-0.2-16.4-0.2-16.4s-0.7-4.6-1-6.2c-0.3-1.3-1.5-5.1-1.5-5.1s-1.4-5.5,0.3-5.9c1-0.2,3.6,4.2,5.3,9
			c1.9,5.1,3,10.6,3.5,10.5c1.3-0.2,0.6-9.2,0.6-9.2s-1.3-4.1-1.2-6.1c-1.2-2.4-2-6.8,0.1-7.2c0.4-0.1,3.2,5.5,3.2,5.5
			s1.1,3.9,1.7,5.8c1.1,3.3,1.3,8.4,1.9,10.7c0.5,1.9,0.9,1.1,1.1,1.2c0.2,0.1-0.1-2.5-0.4-6.1c-0.2-1.8,0.1-3.9-0.5-5.9
			c-0.5-1.9-0.7-4.6-0.9-6.3c-0.3-4.6,2.6-4.2,3.6,0.1c0.4,1.6,0.8,3.4,1.2,5.2c1.6,7,1.5,13.7,2.3,13.7c1,0.1,0.3-12.1,0.3-12.1
			s1.5-6.8,3-0.5c1.7,7.3,1.5,13.2,1.5,13.5C1222.8,778.8,1224.1,785.2,1222.6,791.3z"/>
		<path class="st17" d="M1098,863.3c0,0,10.2-10.7,18.3,2.3c0,0,6.3-3.5,10.7,2.8c0,0,11.4-3.4,14.1,13.6c0,0,5.9-1.1,6.6,5.9
			c0.8,7-2.8,11.6-2.8,11.6s3.3,2.5,1.8,8.9c-1.3,5.4-5.8,6.3-5.8,6.3s-1.2,9.2-5.2,11.9c-4,2.8-9.4,1.4-9.4,1.4s-1.4,5-6.1,4.5
			s-10.4-4.9-15.6-2.9c-5.2,2-18.7-0.1-18.7-0.1s-15.1-6.7-10.6-22.2c0,0-8-7.2-1-15.8c0,0-5.1-13.5,5-21.4
			C1089.6,862.1,1098,863.3,1098,863.3z"/>
		<path class="st3" d="M1168,1312.2c0,0,11.1,13.7,13.8,15.4c2.8,1.7-1.2,21.6-8.7,22.9c-4.2,0.7-6.6-3.9-6.6-3.9l1.2-5.7
			l-15.8-16.3L1168,1312.2z"/>
		<path class="st3" d="M1110.9,1315.6c0,0,9.2,15,11.8,17.1c2.5,2-4,21.3-11.6,21.6c-4.3,0.2-6-4.7-6-4.7l1.9-5.5l-13.6-18.2
			L1110.9,1315.6z"/>
		<path class="st17" d="M1122.1,1332.1c0,0-5.3,6.8-8.2,9.5c-3.7,3.5-8.5,6.9-8.5,6.9s-5.4,9.8-6.9,13.3c-3.3,7.6-7,16.1-6.5,20.4
			c0.2,1.4,3.3,2.8,5.8,2c10.7-3.3,38-28.3,41.5-35C1143.3,1341.4,1122.1,1332.1,1122.1,1332.1z"/>
		<path class="st11" d="M1044,1103.2c1-2.8,1.9-5.4,2.9-7.8c11.4,2.5,24.2,5.2,37.4,8l1.6,48.5c0-3.7-9.9,77.3-9.9,77.3
			s25.7,56.9,43.3,90c-7.2,9-10.6,11.9-21,18c-27.3-32.7-63-92.5-64.4-102.5C1032.9,1229,1032.2,1136.5,1044,1103.2z"/>
		<path class="st6" d="M1145.6,1117.2c-3.5,37.8-11.2,109.9-10.6,115.7c1.9,7.2,36.3,74,42.5,83.8c-4.9,7.4-12.5,15.4-20.7,17.6
			c-1.6,0.4-58.3-80.3-61.4-86.7c-3.5-7.2-9.3-46.8-9.4-95.7l-1.6-48.5C1106.4,1108.1,1126.6,1112.7,1145.6,1117.2z"/>
		<path class="st18" d="M1073.3,945.1l25.9,3.6c0,0,20.8,0.5,23.4,0.5c2.6,0,18.9,94.6,23.6,130.2c4.7,35.6,1.1,41.9,1.1,41.9
			s-32.9,7.4-57.2,5.2c-25.3-2.2-53.7-15.9-53.7-15.9s21.6-68.4,25.9-89.7C1066.4,999.4,1073.3,945.1,1073.3,945.1z"/>
		<path class="st2" d="M1010.4,830.5c0,0-1.7,70.5,1,75.9c3.9,7.8,47.4,63.5,47.4,63.5s-20.8,87-29.5,117.1
			c-0.9,3-4.8,22.6-4.8,24.5c0,4.2,18.4,9.6,20.6,9.3c2-0.3,18-83.1,28.3-123.6c3.5-13.7,9.4-26.7,17.6-38.3l7.1-10.1l-54.7-54.8
			c0,0-6.7-61-6.7-66.1C1036.6,826.5,1013,825.5,1010.4,830.5z"/>
		<path class="st2" d="M1121.6,949l68.2-69.5c0,0,9.5-65.7,10.2-68.2c0.7-2.4,17.6-3.7,24.4-4.4c2.2-0.2-1.1,70-4.4,81.8
			c-3.9,13.9-55.4,77.2-55.4,77.2s-9.2,34.3-7,59.5c3.7,41.8,13.7,99.3,11.9,101.1c-11.1,7-53.6,7.7-56.3,3.4
			C1083.4,1082,1121.6,949,1121.6,949z"/>
		<path class="st3" d="M1099.7,936l-1.8,13.7c0,0-4.1,19.7,1.2,23.5c5.3,3.8,22.6-24,22.6-24l-1.8-34.6L1099.7,936z"/>
		<path class="st6" d="M1120.3,925.7c-4.4,11.8-14.8,19.1-22.2,21.9l1.6-11.6l20.1-21.5L1120.3,925.7z"/>
		<path class="st17" d="M1148,891c0,5.3-3,9.5-6.7,9.5s-6.7-4.3-6.7-9.5c0-5.3,3-9.5,6.7-9.5S1148,885.8,1148,891z"/>
		<ellipse class="st17" cx="1119.8" cy="870.5" rx="8.1" ry="5.5"/>
		<path class="st3" d="M1107.5,878.2c-10.8-3.7-22.2,3.4-23.9,14.5c-0.7,4.8-1.4,10.9-1.5,17.5c-0.3,15.9,8,31.5,15.2,31.5
			s27.2-10.3,28-33C1125.8,894.8,1118.8,882.1,1107.5,878.2z"/>
		<path class="st3" d="M1120,910.5c0,3.5,2.3,6.4,5.2,6.4s5.2-2.9,5.2-6.4s-2.3-6.4-5.2-6.4S1120,907,1120,910.5z"/>
		<path class="st17" d="M1076.1,870.3c-7.5,5.9-10.1,14.9-5.9,20.1c4.2,5.2,13.8,4.6,21.2-1.3c7.5-5.9,10.1-14.9,5.9-20.1
			C1093.1,863.7,1083.6,864.3,1076.1,870.3z"/>
		<ellipse class="st17" cx="1102.6" cy="875.1" rx="6.9" ry="4.7"/>
		<path class="st17" d="M1075,894.9c0,3.3,2.7,6,5.9,6c3.3,0,5.9-2.7,5.9-6s-2.7-6-5.9-6C1077.7,888.9,1075,891.6,1075,894.9z"/>
		<path class="st17" d="M1181.2,1327.1c0,0-4.4,7.4-6.9,10.4c-3.3,3.9-7.6,7.9-7.6,7.9s-4.1,10.4-5.1,14c-2.3,8-4.9,17.6-3.8,21.8
			c0.3,1.3,3.3,3.9,5.7,2.3c9.4-6.1,34.4-34.7,37-41.8C1203.4,1333.6,1181.2,1327.1,1181.2,1327.1z"/>
	</g>
	<path class="st10" d="M1669.3,1035.8c0,0-29.9,4.6-52,26.6c-22.1,22-35.3,57.4-35.3,57.4l45.2,13.2
		C1627.3,1133.1,1609.2,1090.9,1669.3,1035.8z"/>
	<path class="st7" d="M1677.6,1057.5l-3.2-25.5l-22.8-11.8c-2.6-1.3-2.5-5.1,0.1-6.3l23.2-11l4.1-25.3c0.5-2.9,4-4,6.1-1.8
		l17.6,18.7l25.4-3.9c2.9-0.4,5,2.6,3.6,5.2l-12.4,22.5l11.5,22.9c1.3,2.6-0.9,5.6-3.8,5.1l-25.2-4.8l-18.3,18.1
		C1681.5,1061.7,1678,1060.4,1677.6,1057.5z"/>
	<path class="st10" d="M882.4,1171.5c0,0,29.9,4.6,52,26.6c22.1,22,35.3,57.4,35.3,57.4l-45.2,13.2
		C924.4,1268.7,942.5,1226.5,882.4,1171.5z"/>
	<path class="st7" d="M874.1,1193.2l3.2-25.5l22.8-11.8c2.6-1.3,2.5-5.1-0.1-6.3l-23.2-11l-4.1-25.3c-0.5-2.9-4.1-4-6.1-1.8
		l-17.6,18.7l-25.4-3.9c-2.9-0.4-5,2.6-3.6,5.2l12.4,22.5l-11.5,22.9c-1.3,2.6,0.9,5.6,3.8,5.1l25.2-4.8l18.3,18.1
		C870.2,1197.3,873.7,1196.1,874.1,1193.2z"/>
	<path class="st1" d="M1871.7,1058.1l7-11.8l-5.8-12.5c-0.7-1.4,0.6-3,2.1-2.6l13.4,3l10.1-9.3c1.1-1.1,3-0.4,3.2,1.2l1.3,13.7
		l12,6.7c1.4,0.8,1.3,2.8-0.2,3.4l-12.6,5.4l-2.7,13.5c-0.3,1.5-2.2,2.1-3.3,0.9l-9.1-10.3l-13.6,1.6
		C1872,1061.1,1870.9,1059.4,1871.7,1058.1z"/>
	<path class="st19" d="M1196.6,523.5l8.8-14.9l-7.3-15.7c-0.8-1.8,0.8-3.8,2.7-3.3l16.9,3.8l12.7-11.8c1.4-1.3,3.8-0.4,4,1.5
		l1.6,17.3l15.1,8.4c1.7,1,1.6,3.5-0.2,4.3l-15.9,6.9l-3.4,17c-0.4,1.9-2.8,2.6-4.1,1.1l-11.5-13l-17.2,2.1
		C1197,527.3,1195.6,525.2,1196.6,523.5z"/>
	<polygon class="st16" points="1844.5,560.6 1821.2,576.1 1834.2,598.7 1811.9,615.1 1821.7,638.2 1807,653.2 1814.6,660.6 
		1834.2,640.6 1824.9,618.7 1848.1,601.7 1835.3,579.4 1856.4,565.3 	"/>
	<polygon class="st16" points="1880.3,935.4 1863.8,912.8 1841.7,926.7 1824.5,905.1 1801.7,915.8 1786.2,901.8 1779.1,909.7 
		1799.8,928.5 1821.4,918.3 1839.3,940.8 1861,927.1 1876,947.6 	"/>
	<polygon class="st16" points="1107.6,466.2 1113.1,438.7 1088,431.8 1092.3,404.6 1069,395 1068.9,374.1 1058.3,374.1 
		1058.4,402.1 1080.5,411.2 1076,439.6 1100.8,446.3 1095.7,471.2 	"/>
	<polygon class="st7" points="889.7,502.7 900.3,522.6 923.3,521.3 933.7,544.5 957.8,535.6 970.7,561.3 993.9,555.8 1010.3,578.5 
		1001.7,584.7 989.4,567.7 965,573.5 952.6,548.8 928.1,557.9 916.6,532.3 894.2,533.6 884.3,515.1 869.7,519 867,508.8 	"/>
	<polygon class="st5" points="790.4,660 773.5,661.7 767.7,634.7 742.5,634.1 734.9,614.6 725,618.5 735.2,644.6 759.1,645.1 
		765.1,673.2 790.6,670.6 	"/>
	<polygon class="st5" points="759.9,952.9 753.5,968.7 726.9,961.3 714.8,983.3 693.9,981 692.8,991.6 720.6,994.6 732.2,973.8 
		759.8,981.5 769.4,957.6 	"/>
	<g>
		<path class="st20" d="M805,775.7c18.8,18.1,19.5,48,1.4,66.8c-18.1,18.8-48,19.5-66.8,1.4c-18.8-18.1-19.5-48-1.4-66.8
			C756.2,758.3,786.2,757.6,805,775.7z"/>
		<path class="st21" d="M804,815.2l-20.1,6.2l-6.3,20.1c-0.5,1.6-2.7,2-3.6,0.6l-12.1-17.2l-21,0.2c-1.7,0-2.7-1.9-1.7-3.3
			l12.6-16.8l-6.7-20c-0.5-1.6,1-3.1,2.6-2.6l19.9,6.8l16.9-12.5c1.4-1,3.3,0,3.3,1.7l-0.3,21l17.1,12.2
			C805.9,812.6,805.6,814.7,804,815.2z"/>
	</g>
	<g>
		<path class="st20" d="M2040,854.4c18.8,18.1,19.5,48,1.4,66.8c-18.1,18.8-48,19.5-66.8,1.4c-18.8-18.1-19.5-48-1.4-66.8
			S2021.1,836.3,2040,854.4z"/>
		<path class="st21" d="M2038.9,893.9l-20.1,6.2l-6.3,20.1c-0.5,1.6-2.7,2-3.6,0.6l-12.1-17.2l-21,0.2c-1.7,0-2.7-1.9-1.7-3.3
			l12.6-16.8l-6.7-20c-0.5-1.6,1-3.1,2.6-2.6l19.9,6.8l16.9-12.5c1.4-1,3.3,0,3.3,1.7l-0.3,21l17.1,12.2
			C2040.9,891.3,2040.5,893.4,2038.9,893.9z"/>
	</g>
	<path class="st6" d="M1826.6,795.1l8.3,13.7c0.9,1.5,3.1,1.3,3.7-0.3l5.9-14.9l15.6-3.6c1.7-0.4,2.2-2.6,0.9-3.7l-12.4-10.2l1.4-16
		c0.2-1.7-1.7-2.9-3.2-1.9l-13.5,8.6l-14.8-6.2c-1.6-0.7-3.3,0.8-2.8,2.5l4,15.5l-10.5,12.1c-1.1,1.3-0.3,3.4,1.5,3.5L1826.6,795.1z
		"/>
	<path class="st5" d="M1797.6,1109.5c0,5.3-4.3,9.6-9.6,9.6c-5.3,0-9.6-4.3-9.6-9.6c0-5.3,4.3-9.6,9.6-9.6
		C1793.3,1099.9,1797.6,1104.2,1797.6,1109.5z"/>
	<path class="st5" d="M676.8,819.2c0,5.3-4.6,9.6-10.4,9.6c-5.7,0-10.4-4.3-10.4-9.6s4.6-9.6,10.4-9.6
		C672.1,809.6,676.8,813.9,676.8,819.2z"/>
	<g>
		<path class="st18" d="M1219.3,361.1l12.6,2.5c0,0,18.4-8.6,19.8-12.7c1.4-4.1,0.8-13.7,3.4-14.3c2.7-0.6,8.1-0.4,10.1,6
			c1.5,4.6-3.7,19-2.4,20.4c0.8,0.8,8,2.5,13.2,3.6c3.5,0.7,6.2,3.4,7.2,6.8l0,0c0.6,2.3-0.4,4.8-2.5,6l-3.3,1.8l1.6,3.5
			c1.2,2.6,0.1,5.6-2.5,6.8l-2.6,1.2l1.1,2.1c1.5,2.7,0.3,6.1-2.5,7.3l-2.3,1l0.2,0.6c0.7,2.6-0.6,5.3-3,6.3l-2.3,0.9l-33.5-6.6
			c-3.1-0.6-6.1-1.9-8.7-3.7l-11.4-4.3c-1.2-0.5-1.9-1.8-1.6-3.1l6.4-29.7C1216.5,361.8,1217.9,360.8,1219.3,361.1z"/>
	</g>
</g>
</svg>
